<svg width="229" height="164" viewBox="0 0 229 164" fill="none" xmlns="http://www.w3.org/2000/svg">
<path d="M49.4001 105.7C39.0001 83.6 39.4001 54.5 96.4001 56.5C119.4 57.3 131 25 164.9 28.8C198.9 32.7 209.1 70.7 200.6 98.3C192 125.9 139.8 137.9 103.5 135.7C67.2001 133.6 49.4001 105.7 49.4001 105.7Z" fill="#ECEBEB"/>
<path d="M197.9 141.6V141.5V58.8C197.9 57.6 196.9 56.6 195.7 56.6H174.7C173.5 56.6 172.5 57.6 172.5 58.8V141.5V141.6H197.9Z" fill="#F26339"/>
<path d="M120 63.8H91.7C83.3 63.8 77.6 65 69.1 69.7C60 74.8 49.4 81.9001 45 84.4001C42.2 86.0001 17.3 93.0001 15.8 107.4C14.1 123 19.2 124.7 30.1 129.5H156.6C162.5 129.5 167.5 128.8 167.5 116.2C167.5 103.7 166.2 98.2 164.6 90.1C163 82.1 155.7 63.8 139.9 63.8H120Z" fill="#0090C5"/>
<path d="M167.4 107H15.8V107.9H167.5V107H167.4Z" fill="#13A1DC"/>
<path d="M72.3 124.8C72.3 126.4 72.1 127.9 71.8 129.4H66.1L66.3 128.8C66.6 127.5 66.8 126.2 66.8 124.8C66.8 115.2 59 107.4 49.4 107.4C39.8 107.4 32 115.2 32 124.8C32 126.2 32.2 127.5 32.5 128.8L32.7 129.4H27C26.7 127.9 26.5 126.3 26.5 124.8C26.5 112.2 36.8 101.9 49.4 101.9C62 101.9 72.3 112.2 72.3 124.8Z" fill="#005D9A"/>
<path d="M158.9 124.8C158.9 126.4 158.7 127.9 158.4 129.4H152.7L152.9 128.8C153.2 127.5 153.4 126.2 153.4 124.8C153.4 115.2 145.6 107.4 136 107.4C126.4 107.4 118.6 115.2 118.6 124.8C118.6 126.2 118.8 127.5 119.1 128.8L119.3 129.4H113.6C113.3 127.9 113.1 126.3 113.1 124.8C113.1 112.2 123.4 101.9 136 101.9C148.7 101.9 158.9 112.2 158.9 124.8Z" fill="#005D9A"/>
<path d="M69.2 125.5C69.2 126.9 69.1 128.2 68.8 129.5H63.9L64 128.9C64.3 127.8 64.4 126.6 64.4 125.5C64.4 117.2 57.7 110.5 49.4 110.5C41.1 110.5 34.4 117.2 34.4 125.5C34.4 126.7 34.5 127.8 34.8 128.9L34.9 129.5H30C29.7 128.2 29.6 126.8 29.6 125.5C29.6 114.6 38.5 105.7 49.4 105.7C60.3 105.7 69.2 114.6 69.2 125.5Z" fill="#16254E"/>
<path d="M49.4001 141.6C58.3001 141.6 65.5 134.4 65.5 125.5C65.5 116.6 58.3001 109.4 49.4001 109.4C40.5001 109.4 33.3 116.6 33.3 125.5C33.3 134.4 40.5001 141.6 49.4001 141.6Z" fill="#213468"/>
<path d="M49.4 137.7C56.1 137.7 61.5999 132.2 61.5999 125.5C61.5999 118.8 56.1 113.3 49.4 113.3C42.7 113.3 37.2 118.8 37.2 125.5C37.2 132.2 42.7 137.7 49.4 137.7Z" fill="#056EB4"/>
<path d="M49.4 128.4C51 128.4 52.3 127.1 52.3 125.5C52.3 123.9 51 122.6 49.4 122.6C47.8 122.6 46.5 123.9 46.5 125.5C46.4 127.1 47.8 128.4 49.4 128.4Z" fill="#47C2CB"/>
<path d="M155.8 125.5C155.8 126.9 155.7 128.2 155.4 129.5H150.5L150.6 128.9C150.9 127.8 151 126.6 151 125.5C151 117.2 144.3 110.5 136 110.5C127.7 110.5 121 117.2 121 125.5C121 126.7 121.1 127.8 121.4 128.9L121.5 129.5H116.6C116.3 128.2 116.2 126.8 116.2 125.5C116.2 114.6 125.1 105.7 136 105.7C146.9 105.7 155.8 114.6 155.8 125.5Z" fill="#16254E"/>
<path d="M136 141.6C144.9 141.6 152.1 134.4 152.1 125.5C152.1 116.6 144.9 109.4 136 109.4C127.1 109.4 119.9 116.6 119.9 125.5C120 134.4 127.2 141.6 136 141.6Z" fill="#213468"/>
<path d="M136 137.7C142.7 137.7 148.2 132.2 148.2 125.5C148.2 118.8 142.7 113.3 136 113.3C129.3 113.3 123.8 118.8 123.8 125.5C123.9 132.2 129.3 137.7 136 137.7Z" fill="#056EB4"/>
<path d="M136 128.4C137.6 128.4 138.9 127.1 138.9 125.5C138.9 123.9 137.6 122.6 136 122.6C134.4 122.6 133.1 123.9 133.1 125.5C133.1 127.1 134.4 128.4 136 128.4Z" fill="#47C2CB"/>
<path d="M53.5 84.4C56.5 82.5 67.2 75.4 71.1 73.3C78.7 69.2 83.7 69.2 88.1 69.2H143.1C148.4 69.2 149.3 71 149.3 74.6C149.3 78.2 144.5 87.9 132.4 89.7C120.4 91.5 95.1 91.7 82 91.7H54C49.6 91.7 49 87.3 53.5 84.4Z" fill="#223F81"/>
<path d="M95.5 67.3H90.5V93.9H95.5V67.3Z" fill="#0090C5"/>
<path d="M135.2 65.4L132.4 66.6L142.7 91.1L145.5 89.9L135.2 65.4Z" fill="#0090C5"/>
<path d="M20.7 104.9H26.3C27.3 104.9 29.6 103.8 30.4 102.1C31.3 100.4 32.2 99.2 32.8 98C33.5 96.8 32.6 95.6 30 95.6H26.1C24.7 95.6 21.3 98.4 19.9 100.9C19 102.7 18.2 104.9 20.7 104.9Z" fill="#35B0E5"/>
<path d="M145.2 94.1H144.2C142.1 94.1 140.5 95.8 140.5 97.8V98.8C140.5 100.9 142.2 102.5 144.2 102.5H145.2C147.3 102.5 148.9 100.8 148.9 98.8V97.8C148.9 95.8 147.3 94.1 145.2 94.1Z" fill="#005D9A"/>
<path d="M157.8 86.9V95C157.8 97.4 158.9 98.3 160.9 98.3H163.7C164.8 98.3 165.1 97.2 164.3 93.8C163.5 90.4 163.2 88.9 162.9 88C162.9 88 162.6 85.7 161.8 85.7H158.6C158 85.8 157.8 86.1 157.8 86.9Z" fill="#F37450"/>
<path d="M115.2 125.5H70.9V129.5H115.1V125.5H115.2Z" fill="#005D9A"/>
<path d="M24.7 121.7H21.1C19.2 121.7 17.7 123.2 17.7 125.1V126C17.7 127.9 19.2 129.4 21.1 129.4H24.7C26.6 129.4 28.1 127.9 28.1 126V125.1C28.1 123.3 26.6 121.7 24.7 121.7Z" fill="#005D9A"/>
<path d="M164.9 121.7H159.2C157.3 121.7 155.8 123.2 155.8 125.1V126C155.8 127.9 157.3 129.4 159.2 129.4H164.9C166.8 129.4 168.3 127.9 168.3 126V125.1C168.3 123.3 166.8 121.7 164.9 121.7Z" fill="#005D9A"/>
<path d="M86.2 93.3H79.1C78.5 93.3 78.1 93.8 78.1 94.3V94.6C78.1 95.2 78.6 95.6 79.1 95.6H86.2C86.8 95.6 87.2 95.1 87.2 94.6V94.3C87.2 93.7 86.7 93.3 86.2 93.3Z" fill="#005D9A"/>
<path d="M106.8 93.3H99.7C99.1 93.3 98.7 93.8 98.7 94.3V94.6C98.7 95.2 99.2 95.6 99.7 95.6H106.8C107.4 95.6 107.8 95.1 107.8 94.6V94.3C107.8 93.7 107.4 93.3 106.8 93.3Z" fill="#005D9A"/>
<path d="M188.1 137.6C187.6 137.6 187.2 137.6 186.7 137.6C186.2 137.6 185.7 137.6 185.2 137.6C167.1 137.6 160.9 136.3 151.7 127.4C144.1 120 143.6 106.1 143.4 101.6L145.6 101.5C145.8 105.8 146.2 119 153.2 125.8C161.8 134.2 167.4 135.3 185.1 135.3C185.6 135.3 186.1 135.3 186.6 135.3C193.3 135.3 199.1 135.3 203.1 132.6C205.8 130.7 209.4 126.7 209.8 112.9L212 113C211.7 124.4 209.3 131 204.3 134.4C200.2 137.4 194.6 137.6 188.1 137.6Z" fill="#9FA0A0"/>
<path d="M197.9 127.7H172.5V132.9H197.9V127.7Z" fill="#DA5733"/>
<path d="M200.5 67.7H169.9C167.1 67.7 164.9 69.9 164.9 72.7V125.1C164.9 127.9 167.1 130.1 169.9 130.1H200.5C203.3 130.1 205.5 127.9 205.5 125.1V72.7C205.5 70 203.3 67.7 200.5 67.7Z" fill="#D4D5D4"/>
<path d="M195.5 130.1V80.6C195.5 79.4 194.5 78.4 193.3 78.4H177.1C175.9 78.4 174.9 79.4 174.9 80.6V130.1H195.5Z" fill="#227BC0"/>
<path d="M191.4 80.5H179.1C178.3 80.5 177.6 80.9 177.6 81.5V85C177.6 85.5 178.3 86 179.1 86H191.4C192.2 86 192.9 85.6 192.9 85V81.5C192.9 80.9 192.2 80.5 191.4 80.5Z" fill="white"/>
<path d="M183.7 88.8H179C178.4 88.8 177.9 89.3 177.9 89.9V99.5C177.9 100.1 178.4 100.6 179 100.6H183.8C184.4 100.6 184.9 100.1 184.9 99.5V89.9C184.8 89.3 184.3 88.8 183.7 88.8Z" fill="#BBBBBB"/>
<path d="M205.4 101.6C211.1 101.6 211.7 102.4 211.9 105.4C212.2 108.4 212.6 113.7 212.7 114.8C212.7 116.6 209.4 116.8 209.1 114.8C209.1 114.8 208.5 111.3 208.4 109.9C208.3 108.2 206.7 108.2 205.4 108.2V101.6Z" fill="#F26339"/>
<path d="M146.5 95.6H143.1C142.3 95.6 141.7 96.2 141.7 97V99.8C141.7 100.6 142.3 101.2 143.1 101.2H143.2V104.5C143.2 105.4 143.9 106.1 144.8 106.1C145.7 106.1 146.4 105.4 146.4 104.5V101.2H146.5C147.3 101.2 147.9 100.6 147.9 99.8V97C147.9 96.2 147.3 95.6 146.5 95.6Z" fill="#F26339"/>
<path d="M91.8 138.1C90 138.2 88.3 139.2 86.7 139.6C85.5 139.9 86.1 141.5 86.2 141.8C87 142 88.2 142.6 92.1 141.8C95.6 141.8 97.1 142.1 97.6 141.7C98.1 141.4 97.7 139 97.6 138.6C97.5 138.1 93.9 136.7 93.9 136.7L92.1 137.1L91.8 138.1Z" fill="#CC7F63"/>
<path d="M107.1 138.1C108.9 138.2 110.6 139.2 112.2 139.6C113.4 139.9 112.8 141.5 112.7 141.8C111.9 142 110.7 142.6 106.8 141.8C103.3 141.8 101.8 142.1 101.3 141.7C100.8 141.4 101.2 139 101.3 138.6C101.4 138.1 105 136.7 105 136.7L106.8 137.1L107.1 138.1Z" fill="#CC7F63"/>
<path d="M99.3 110.9C98.7 110.9 95.7 110.6 95.7 110.6L93.8 110L92.1 108.6L91.5 107.8C91.5 107.8 91.8 103.7 92.3 102.6C92.8 101.5 96 101.1 96 101.1L100 100.6L103.9 100.9L106.1 101.3C106.1 101.3 108.8 103.3 108.6 105C108.5 106.7 107.1 107.8 106.9 108.8C106.7 109.8 105 110.4 105 110.4L100 110.9H99.3Z" fill="#223F81"/>
<path d="M92.6 100C92.6 100 91.8 105.2 91.6 107.3C91.5 109.4 91.2 113.2 91 114.8C90.8 116.5 90.2 118.4 90.2 119.1C90.2 119.8 90.3 121.4 90.6 122.5C90.9 123.7 90.6 126.7 90.7 128.2C90.7 129.7 90.6 135 90.6 136C90.6 137 90.3 137.7 91.1 138.1C91.9 138.4 95.1 138.2 96.3 139.2C97.4 140.2 98.2 139.9 98 139.1C97.9 138.3 97.7 136.4 97.4 135.5C97.1 134.6 97.5 126.2 97.2 123.9C96.9 121.6 96.8 121.2 97.4 118.6C97.9 116 98.6 114.2 98.8 111.4C99 108.6 99.3 107.2 99.1 105.8C98.9 104.4 99.5 102.9 98.7 101.7C98 100.5 92.6 100 92.6 100Z" fill="#223F81"/>
<path d="M106.1 101.3C106.1 101.3 107.2 105.2 107.3 107.3C107.4 109.4 107.7 113.2 107.9 114.8C108.1 116.5 108.7 118.3 108.7 119.1C108.7 119.9 108.6 121.4 108.3 122.5C108 123.7 108.3 126.7 108.2 128.2C108.2 129.7 108.3 135 108.3 136C108.3 137 108.6 137.7 107.8 138.1C107 138.4 103.8 138.2 102.6 139.2C101.5 140.2 100.7 139.9 100.9 139.1C101 138.3 101.2 136.4 101.5 135.5C101.8 134.6 101.4 126.2 101.7 123.9C102 121.6 102.1 121.2 101.5 118.6C101 116 100.3 114.2 100.1 111.4C99.9 108.6 99.6 107.2 99.8 105.8C100 104.4 99.4 102.9 100.2 101.7C101 100.5 106.1 101.3 106.1 101.3Z" fill="#223F81"/>
<path d="M91 75.2C92.7 74 95.9 72.3 98.4 72.4C100.9 72.5 104.3 72.7 106.2 74.1C108.1 75.5 106.7 82.9 106.7 84.3C106.6 85.7 106.2 96.2 106 98.5C105.8 100.8 104.9 100.4 104.2 102.8C103.5 105.2 93.1 103.3 92.5 102.8C92 102.3 91.5 101.3 91.7 98.2C91.9 95 91.5 82.6 90.6 81C89.7 79.2 90.3 75.6 91 75.2Z" fill="#DBDBDB"/>
<path d="M101 85.9H97.9C97.6 85.9 97.3 86.2 97.3 86.5V93C97.3 93.3 97.6 93.6 97.9 93.6H101C101.3 93.6 101.6 93.3 101.6 93V86.5C101.6 86.2 101.3 85.9 101 85.9Z" fill="#16254E"/>
<path d="M95.7001 72.8001C95.7001 72.8001 93.7001 98.7001 96.4001 104.3C96.9001 105.2 93.6001 105.2 92.1001 104.6C90.6001 104 91.1001 101.4 91.1001 99.3001C91.0001 97.2001 90.6001 82.7001 90.2001 81.4001C89.8001 80.1001 89.3001 76.3001 90.1001 75.5001C90.9001 74.6001 94.1001 72.4001 95.7001 72.8001Z" fill="#F26339"/>
<path d="M102.9 72.7001C102.9 72.7001 104.9 98.6001 102.2 104.2C104.6 104.7 104.7 101.4 106.8 100.6C108.3 100 107.5 101.3 107.6 99.1001C107.7 96.9001 108.1 82.5001 108.5 81.2001C108.9 79.9001 109.4 76.1001 108.6 75.3001C108.4 75.1001 108 74.8001 107.6 74.5001C106.2 73.6001 104.1 72.4001 102.9 72.7001Z" fill="#F26339"/>
<path d="M90.6 75C89.2 75.6 87.7 76.8 87.7 77.5C87.7 78.2 86.1 85.5 85.6 87.7C85.2 89.9 84.3 92.3 84.3 93.1C84.3 93.5 84.4 94 84.7 94.5C85 94.9 85.5 95.3 86.3 95.5C87.9 95.9 88.8 93.9 89.1 92.9C89.4 91.9 90.8 89.7 91 88.1C91.2 86.5 92.8 79.4 92.6 78.5C92.3 77.5 92 74.5 90.6 75Z" fill="#F26339"/>
<path d="M95.2999 94.5C95.6999 94.4 95.9999 91 95.3999 90.2C94.7999 89.4 93.5999 89.9 92.4999 90C91.3999 90.2 90.3999 90.2 89.2999 90.1C88.1999 90 85.8999 90.3 85.4999 90.8C85.0999 91.2 83.9999 92.6 84.2999 93.7C84.5999 94.8 85.4999 95.6 86.6999 95.6C87.8999 95.6 89.4999 95.8 90.2999 95.5C91.1999 95.2 93.5999 95.1 94.0999 94.9L95.2999 94.5Z" fill="#F26339"/>
<path d="M110.2 78.9C110.2 77.2 109.9 76.1 107.6 75C105.3 73.9 106.5 80.2 106.5 80.2L106.2 85.2L107.2 90.2L106.1 100.4C106.1 100.4 108.8 103.9 109.7 103.9C110 103.9 110.5 102.5 110.9 100.1C111.4 97.7 111.9 93 112.4 91.5C113 89.9 112.1 88.6 111.7 87C111.2 85.3 110.1 78.9 110.2 78.9Z" fill="#F26339"/>
<path d="M103.4 71.1C103.4 71.1 102 70.6 101.9 70.7C101.8 70.7 101.7 70.7 101.6 70.7H97.2C97.1 70.7 97 70.7 96.9 70.7C96.7 70.6 95.4 71.1 95.4 71.1C95.4 71.1 93.8 72 93.9 74.8C94 77.1 94.3 73.4 95.7 75.1C95.9 73.6 95.6 73.2 97.9 72.7C98 72.7 98.1 72.7 98.2 72.6H100.8C100.9 72.6 101 72.6 101.1 72.7C103.4 73.2 103.1 73.7 103.3 75.1C104.7 73.4 105 77.2 105.1 74.8C105 72 103.4 71.1 103.4 71.1Z" fill="#F58963"/>
<path d="M106 100.5C105.9 100.5 105.8 100.4 105.8 100.3C105.6 98.3 106.8 90.7 106.9 90C106.8 89.7 106.4 87 106 85.4C105.6 83.7 105.6 80.8 105.6 80.7C105.6 80.6 105.7 80.5 105.8 80.5C105.9 80.5 106 80.6 106 80.7C106 80.7 106.1 83.7 106.4 85.3C106.8 87 107.3 89.9 107.3 90C107.3 90.1 105.9 98.2 106.2 100.2C106.1 100.4 106.1 100.5 106 100.5Z" fill="#F58963"/>
<path d="M86.4 90.6C86.3 90.6 86.2 90.5 86.2 90.4C86.2 90.3 86.3 90.2 86.4 90.2C86.5 90.2 89.8 89.8 90.7 90.1C92.5 89.8 94.9 89.6 95 89.6C95.1 89.6 95.2 89.7 95.2 89.8C95.2 89.9 95.1 90 95 90C95 90 92.5 90.2 90.7 90.5C89.8 90.2 86.5 90.6 86.4 90.6Z" fill="#F58963"/>
<path d="M90.3 90.3C90.2 90.3 90.1 90.2 90.1 90.1C90.1 90.1 90.9 87.2 91 85.5C91 84.5 91.3 83.2 91.6 82C91.8 81 92 80 91.9 79.8C91.9 79.7 91.9 79.6 92 79.6C92.1 79.6 92.2 79.6 92.2 79.7C92.3 80 92.1 80.8 91.9 82.1C91.7 83.3 91.4 84.7 91.3 85.6C91.2 87.4 90.4 90.2 90.4 90.3C90.4 90.3 90.4 90.4 90.3 90.3Z" fill="#F58963"/>
<path d="M87.8 95.9C86.9 95.9 85.9 95.7 85.1 95.3C84.5 94.9 84.2 94.4 84.1 93.7C84.1 93.6 84.1 93.5 84.2 93.5C84.3 93.5 84.4 93.5 84.4 93.6C84.5 94.2 84.8 94.6 85.3 94.9C86.5 95.7 88.5 95.5 89.5 95.3C91 94.9 95.1 94.3 95.2 94.3C95.3 94.3 95.4 94.3 95.4 94.4C95.4 94.5 95.4 94.6 95.3 94.6C95.3 94.6 91.1 95.3 89.6 95.6C89.2 95.8 88.5 95.9 87.8 95.9Z" fill="#F58963"/>
<path d="M106 100.4C106 100.4 105.5 101.7 105.9 102C106.3 102.3 108.3 103.3 108.6 104.5C109.2 104.9 109.6 104 109.9 103.5C110.2 103 108.4 101.9 108.4 101.9L107.5 101.3C107.4 101.3 106.8 100.7 106 100.4Z" fill="#F58963"/>
<path d="M102.3 73.6C102.1 73.2 101.8 72.3 102.1 71L99.3 70.9L96.5 71C96.9 72.2 96.5 73.2 96.3 73.6C96.1 74 96.6 75.1 99.2 75.1C102 75.1 102.4 74 102.3 73.6Z" fill="#EBCA9D"/>
<path d="M99.3 60.1C95.7 60.1 94.4 62.3 94.4 64.1C94.4 65.1 94.4 67.2 95.6 70C96.8 73 97.8 73 99.3 73C100.8 73 101.8 73 103 70C104.1 67.1 104.2 65.1 104.2 64.1C104.2 62.3 102.9 60.1 99.3 60.1Z" fill="#EBCA9D"/>
<path d="M94.3 65.6C94.3 65.6 93.6 65.4 93.7 66.3C93.8 67.1 93.9 68.3 94.3 68.5C94.7 68.7 94.7 68.6 94.7 68.6L94.3 65.6Z" fill="#EBCA9D"/>
<path d="M104.4 65.6C104.4 65.6 105.1 65.4 105 66.3C104.9 67.1 104.8 68.3 104.4 68.5C104 68.7 104 68.6 104 68.6L104.4 65.6Z" fill="#EBCA9D"/>
<path d="M99.4 73.1C99 73.1 98.6 73.1 98.2 73.1C96.2 73 95.1 68.7 95 68.6C95 68.6 95 68.5 95.1 68.5C95.1 68.5 95.2 68.5 95.2 68.6C95.2 68.6 96.3 72.9 98.2 73C100.1 73.1 101.1 73 101.6 72.5C102 72 103.3 70.1 103.5 68.7C103.5 68.7 103.5 68.6 103.6 68.6C103.6 68.6 103.7 68.6 103.7 68.7C103.5 70.2 102.2 72 101.8 72.5C101.3 72.9 100.6 73.1 99.4 73.1Z" fill="#CCAE8B"/>
<path d="M103.3 61.1C102 59.6 99.4 59.6 99.4 59.6C99.4 59.6 96.8 59.6 95.5 61.1C94.2 62.6 94.1 63.9 94.4 66C94.7 68.2 94.8 68.6 94.9 68.9C95 69.2 95.4 68.8 95.4 68.8C95.4 68.8 95 64.9 95.3 64C95.6 63.1 98 63.7 99.4 63.7C100.8 63.7 103.1 63.1 103.5 64C103.8 64.9 103.6 68.9 103.6 68.9C103.6 68.9 104 69.4 104.1 69C104.2 68.7 104.3 68.2 104.6 66.1C104.6 63.9 104.6 62.6 103.3 61.1Z" fill="#020202"/>
<path d="M95.2 90.4C95.2 90.4 96.2 90.1 96.6 89.9C97.4 89.6 97.8 90.2 99.3 90.1C100.1 90.1 100.9 89.8 101.4 89.8C101.9 89.8 102.1 90.3 101.9 90.7C102.5 90.8 102.4 91.6 102 91.7C102.3 91.9 102.3 92.5 102 92.6C102.4 92.7 102.2 93.3 101.5 93.6C101.1 93.8 100.5 94 99.4 94.2C98.3 94.4 96.1 94.5 95.4 93.9C94.7 93 95.2 90.4 95.2 90.4Z" fill="#EBCA9D"/>
<path d="M95.3 94.5C95.3 94.5 95.7 94.6 95.9 94C96.1 93.3 96.1 90.2 95.8 90C95.5 89.7 94.2 89.5 94.3 90.5C94.5 91.5 94.5 93.9 94.3 94.4C94 94.8 94.9 94.7 95.3 94.5Z" fill="#F58963"/>
<path d="M99.3 91.3C99.1 91.3 98.9 91.3 98.7 91.2C98.7 91.2 98.6 91.1 98.7 91.1C98.7 91.1 98.8 91 98.8 91.1C98.9 91.2 99.3 91.2 99.4 91.2C99.6 91.1 101.7 90.6 101.8 90.6C101.8 90.6 101.9 90.6 101.9 90.7C101.9 90.7 101.9 90.8 101.8 90.8C101 91 99.5 91.3 99.4 91.4C99.5 91.3 99.4 91.3 99.3 91.3Z" fill="#CCAE8B"/>
<path d="M99.5 92.3C99.3 92.3 99.1 92.3 98.9 92.2C98.9 92.2 98.8 92.1 98.9 92.1C98.9 92.1 99 92 99 92.1C99.1 92.2 99.5 92.2 99.6 92.2C99.8 92.1 101.8 91.6 101.9 91.6C101.9 91.6 102 91.6 102 91.7C102 91.7 102 91.8 101.9 91.8C101.9 91.8 99.8 92.3 99.6 92.4C99.6 92.3 99.6 92.3 99.5 92.3Z" fill="#CCAE8B"/>
<path d="M99.5 93.4C99.3 93.4 99.1 93.4 98.9 93.3C98.9 93.3 98.8 93.2 98.9 93.2C98.9 93.2 99 93.1 99 93.2C99.1 93.3 99.5 93.3 99.6 93.3C99.8 93.2 101.9 92.6 101.9 92.6L102 92.8C102 92.8 99.9 93.5 99.7 93.5C99.6 93.4 99.6 93.4 99.5 93.4Z" fill="#CCAE8B"/>
<path d="M146.6 98.3H144.9V96.4L142.9 99.6H144.4V101.5L146.6 98.3Z" fill="white"/>
<path d="M189 61.5H185.8V57.9L182.2 63.9H185V67.5L189 61.5Z" fill="white"/>
</svg>
