<svg version="1.1" id="Layer_1" x="0px" y="0px" viewBox="0 0.882 16.856 16.856" style="enable-background:new 0 0 108 20;" xmlns="http://www.w3.org/2000/svg"><style type="text/css">
	.st0{fill:#000000;}
</style><g><path class="st0" d="M9.86,2.45c-0.52-0.52-1.2-0.78-1.88-0.78c-0.68,0-1.36,0.26-1.88,0.78L6,2.56L5.89,2.67l3.36,3.36l3.36,3.36 l-3.36,3.36L5.89,16.1L6,16.21l0.11,0.11c0.52,0.52,1.2,0.78,1.88,0.78c0.68,0,1.36-0.26,1.88-0.78l3.47-3.47l3.47-3.47l-3.47-3.47 L9.86,2.45z" style="fill: rgb(0, 0, 0);"></path><path class="st0" d="M10.43,9.38L8.08,7.03L5.72,4.67C5.43,4.39,5.06,4.24,4.68,4.24c-0.38,0-0.75,0.14-1.04,0.43L3.12,5.2 L2.59,5.73l1.83,1.83l1.83,1.83l-1.83,1.83l-1.83,1.83l0.53,0.53l0.53,0.53c0.29,0.29,0.66,0.43,1.04,0.43 c0.38,0,0.75-0.14,1.04-0.43l2.35-2.35L10.43,9.38z" style="fill: rgb(0, 0, 0);"></path><path class="st0" d="M4.25,9.38L2.98,8.11L1.71,6.84L1.19,7.37L0.67,7.89C0.25,8.3,0.05,8.84,0.05,9.38s0.21,1.08,0.62,1.49 l0.52,0.52l0.52,0.52l1.27-1.27L4.25,9.38z" style="fill: rgb(0, 0, 0);"></path></g></svg>