<svg width="229" height="164" viewBox="0 0 229 164" fill="none" xmlns="http://www.w3.org/2000/svg">
<path d="M62.4 126.3C52.3 121.5 38.9 108.6 41.8 88.1C44.7 67.6 78.5 33.5 143.2 48.4C207.9 63.3 199.7 112.9 186.2 126.8C172.7 140.7 88.8 138.7 62.4 126.3Z" fill="#ECEBEB"/>
<path d="M93.9 135.4C93.9 135.6 93.9 135.9 93.9 136.1H17.9C17.6 135.2 17.5 134.2 17.5 133.2C17.5 127.7 22.1 123.2 27.6 123.2C28.4 123.2 29.3 123.3 30 123.5C31.5 123.9 32.9 123 33.4 121.6C35.4 114.7 41.7 109.6 49.3 109.6C55.5 109.6 60.9 113 63.7 118C64.5 119.5 66.5 119.8 67.8 118.7C69.5 117.2 71.8 116.3 74.3 116.3C79.8 116.3 84.4 120.7 84.4 126.3V126.4C84.4 127.6 85.4 128.6 86.6 128.5C86.7 128.5 86.9 128.5 87 128.5C90.7 128.6 93.8 131.7 93.9 135.4Z" fill="#46C2CC"/>
<path d="M109.4 135.5C109.4 135.7 109.4 135.9 109.4 136.1H50.4001C50.2001 135.4 50.1001 134.6 50.1001 133.9C50.1001 129.6 53.6001 126.1 57.9001 126.1C58.6001 126.1 59.2001 126.2 59.8001 126.3C60.9001 126.6 62.1001 125.9 62.4001 124.8C63.9001 119.4 68.9001 115.5 74.8001 115.5C79.6001 115.5 83.8001 118.1 86.0001 122C86.6001 123.1 88.2001 123.4 89.2001 122.5C90.6001 121.3 92.3001 120.6 94.2001 120.6C98.5001 120.6 102 124.1 102.1 128.3C102.1 128.3 102.1 128.3 102.1 128.4C102.1 129.3 102.9 130.1 103.8 130.1C103.9 130.1 104 130.1 104.1 130.1C106.9 130.3 109.3 132.7 109.4 135.5Z" fill="#9DD9E0"/>
<path d="M212.2 135.3C212.2 135.5 212.2 135.8 212.2 136H135.4C135.1 135.1 135 134.1 135 133.1C135 127.5 139.6 123 145.2 123C146.1 123 146.9 123.1 147.7 123.3C149.2 123.7 150.7 122.8 151.1 121.3C153.1 114.3 159.5 109.2 167.2 109.2C173.4 109.2 178.9 112.6 181.8 117.7C182.6 119.2 184.6 119.5 185.9 118.4C187.7 116.9 190 116 192.5 116C198.1 116 202.7 120.5 202.7 126.1V126.2C202.7 127.4 203.7 128.4 204.9 128.4C205 128.4 205.2 128.4 205.3 128.4C208.9 128.5 212.1 131.7 212.2 135.3Z" fill="#9DD9E0"/>
<mask id="mask0_636_44620" style="mask-type:luminance" maskUnits="userSpaceOnUse" x="21" y="24" width="170" height="118">
<path d="M190.9 24.5H21.8999V141.1H190.9V24.5Z" fill="white"/>
</mask>
<g mask="url(#mask0_636_44620)">
<path d="M184.4 128.9H160.9V131.9H184.4V128.9Z" fill="#BBBBBB"/>
<path d="M184.4 126H160.9V129H184.4V126Z" fill="#9FA0A0"/>
<path d="M184.4 131.9H160.9V134.9H184.4V131.9Z" fill="#9FA0A0"/>
<path d="M184.4 134.8H160.9V137.8H184.4V134.8Z" fill="#BBBBBB"/>
<path d="M184.4 117.1H160.9V120.1H184.4V117.1Z" fill="#BBBBBB"/>
<path d="M184.4 114.2H160.9V117.2H184.4V114.2Z" fill="#9FA0A0"/>
<path d="M184.4 120H160.9V123H184.4V120Z" fill="#9FA0A0"/>
<path d="M184.4 123H160.9V126H184.4V123Z" fill="#BBBBBB"/>
<path d="M184.4 137.8H160.9V140.8H184.4V137.8Z" fill="#9FA0A0"/>
<path d="M103 36.3C90.8 36.3 86 42.6 86 45.1V69C86 71.5 88 73.5 90.5 73.5V52.3C90.5 49.9 94.1 44 103 44C111.9 44 115.5 50 115.5 52.3V73.5C118 73.5 120 71.4 120 69V45.1C120 42.6 115.2 36.3 103 36.3Z" fill="#13A1DC"/>
<path d="M129.2 97.5C128.7 97.5 128.3 97.1 128.3 96.6V67.3C128.3 66.8 128.7 66.4 129.2 66.4C129.7 66.4 130.1 66.8 130.1 67.3V96.6C130.1 97.1 129.7 97.5 129.2 97.5Z" fill="#BBBBBB"/>
<path d="M135.5 102C135 102 134.6 101.6 134.6 101.1V71.8C134.6 71.3 135 70.9 135.5 70.9C136 70.9 136.4 71.3 136.4 71.8V101C136.4 101.6 136 102 135.5 102Z" fill="#BBBBBB"/>
<path d="M141.8 106.1C141.3 106.1 140.9 105.7 140.9 105.2V75.9C140.9 75.4 141.3 75 141.8 75C142.3 75 142.7 75.4 142.7 75.9V105.2C142.7 105.6 142.3 106.1 141.8 106.1Z" fill="#BBBBBB"/>
<path d="M148.1 109.8C147.6 109.8 147.2 109.4 147.2 108.9V79.6001C147.2 79.1001 147.6 78.7001 148.1 78.7001C148.6 78.7001 149 79.1001 149 79.6001V108.9C149 109.3 148.6 109.8 148.1 109.8Z" fill="#BBBBBB"/>
<path d="M154.4 115.1C153.9 115.1 153.5 114.7 153.5 114.2V84.9C153.5 84.4 153.9 84 154.4 84C154.9 84 155.3 84.4 155.3 84.9V114.2C155.3 114.7 154.9 115.1 154.4 115.1Z" fill="#BBBBBB"/>
<path d="M122.5 87.7001L161 112.3V130.7L122.5 105.7V87.7001Z" fill="#13A1DC"/>
<path d="M85.6001 149C83.9001 149 82.6001 147.6 82.6001 146V36.3C82.6001 34.6 84.0001 33.3 85.6001 33.3C87.2001 33.3 88.6001 34.7 88.6001 36.3V146C88.6001 147.7 87.2001 149 85.6001 149Z" fill="#D4D5D4"/>
<path d="M120.7 149C119 149 117.7 147.6 117.7 146V36.3C117.7 34.6 119.1 33.3 120.7 33.3C122.3 33.3 123.7 34.7 123.7 36.3V146C123.7 147.7 122.3 149 120.7 149Z" fill="#D4D5D4"/>
<path d="M88 92.8001V73.6001C88 70.0001 93.7 70.4001 94 73.4001C94.3 76.4001 99 78.9001 103.9 78.9001C108.8 78.9001 112.8 76.3001 112.8 73.6001C112.8 70.9001 118.3 70.3001 118.3 73.3001C118.3 76.3001 118.4 89.8001 118.4 95.1001C118.4 100.4 119.2 109.7 129.3 112.1C135 113.3 137 112.8 138.5 112.8C140 112.8 141.4 114.3 141.4 120.5V128.4C141.4 131.1 139.2 132.3 134.9 132.3H111.6C93.4 132.3 88 121.3 88 107C88 92.7001 88 92.8001 88 92.8001Z" fill="#056EB4"/>
<path d="M138.3 121.1C137.9 121.1 137.5 120.8 137.5 120.3C137.5 116.2 135.7 115.4 132.4 115.4H110C102.9 115.4 97.8999 113.2 95.0999 108.8C92.6999 105 92.3999 100.5 92.3999 97.4V76.3C92.3999 75.9 92.6999 75.5 93.1999 75.5C93.6999 75.5 93.9999 75.8 93.9999 76.3V97.4C93.9999 104.5 95.6999 113.9 110.1 113.9H132.5C135.8 113.9 139.1 114.7 139.1 120.3C139.1 120.8 138.8 121.1 138.3 121.1Z" fill="#13A1DC"/>
<path d="M125.5 115.5C119.3 115.5 112.8 111.3 112.8 104.2V76.3C112.8 75.9 113.1 75.5 113.6 75.5C114.1 75.5 114.4 75.8 114.4 76.3V104.1C114.4 110.2 120.1 113.9 125.5 113.9C125.9 113.9 126.3 114.2 126.3 114.7C126.3 115.2 125.9 115.5 125.5 115.5Z" fill="#13A1DC"/>
<path d="M161.8 142.3C161 142.3 160.3 141.6 160.3 140.8V89.6001L121.6 62.9001C120.9 62.4001 120.7 61.5001 121.2 60.8001C121.7 60.1001 122.6 59.9001 123.3 60.4001L162.6 87.6001C163 87.9001 163.3 88.3001 163.3 88.8001V140.8C163.3 141.6 162.6 142.3 161.8 142.3Z" fill="#D4D5D4"/>
<path d="M183.8 144C183 144 182.3 143.3 182.3 142.5V90.5C182.3 89.7 183 89 183.8 89C184.6 89 185.3 89.7 185.3 90.5V142.5C185.3 143.4 184.6 144 183.8 144Z" fill="#D4D5D4"/>
<path d="M174.8 95.5C174.8 95.5 174.3 95.2 173.9 95C173.5 94.7 173.8 93 173.8 93H171.9C171.9 93 172 94.2 171.6 94.9C171.3 95.5 171.1 95.5 171.1 95.5C172.8 95.1 173.4 95.1 174.8 95.5Z" fill="#CC7F63"/>
<path d="M179.9 102.7C179.9 102.7 179.3 102.6 179 103.1C178.7 103.6 178.2 104.6 178.3 105.1C178.4 105.6 178.7 105.4 178.7 105.1C178.8 104.9 178.8 104.3 179 104.3C179.2 104.2 179.5 104.5 179.4 104.7C179.3 104.9 179.4 105.4 178.9 105.7C178.4 106 178.5 106.7 179 106.5C179.5 106.3 180.2 105.7 180.3 105C180.5 104.3 180.6 103.2 179.9 102.7Z" fill="#CC7F63"/>
<path d="M176.8 96.3C176.8 96.3 179.1 98.4 179.6 99.5C180.1 100.6 179.2 100.5 178.4 100C177.6 99.5 176.2 98.8 176.1 97.7C175.9 96.7 176.8 96.3 176.8 96.3Z" fill="#CC7F63"/>
<path d="M178 99.4001C178 99.4001 179.1 101.3 179.1 102.7C179.1 104.1 180.3 104 180.3 102.9C180.3 101.8 180.2 99.1001 179 98.9001C177.8 98.7001 178 99.4001 178 99.4001Z" fill="#CC7F63"/>
<path d="M174.2 114C174.2 114 173.7 115.4 173.9 116.2C174.1 117 174.8 116.9 175.2 116.1C175.6 115.3 175.6 114 175.4 114C175.2 114 174.2 114 174.2 114Z" fill="#CC7F63"/>
<path d="M169.1 111.4C169.2 112.5 169.1 113 169.8 113C170.5 113 170.7 112.3 170.5 111.4C170.2 110.5 169.1 111.4 169.1 111.4Z" fill="#CC7F63"/>
<path d="M168.7 95.9C168.7 95.9 167.4 96.5 166.5 96.7C165.7 96.9 165.4 98.2 165.9 98.4C166.4 98.6 168.6 98.3 169.4 97.5C170.2 96.7 169.6 96.1 169.6 96.1L168.7 95.9Z" fill="#CC7F63"/>
<path d="M166.8 97.2001C166.1 96.2001 164.8 94.9001 164.3 94.6001C163.8 94.3001 163.3 95.4001 163.7 95.9001C164.1 96.4001 165.2 99.1001 166.9 98.4001C167.2 98.3001 166.9 97.2001 166.8 97.2001Z" fill="#CC7F63"/>
<path d="M173.2 108.2C173.2 108.2 174 110.2 174 111C174 111.8 173.8 113.6 173.9 114.6C174 115.6 175.2 115.5 175.7 114.6C176.1 113.7 176.3 111 176.2 110.2C176.1 109.5 176.7 108.2 175.9 107.4C175 106.7 173.2 108.2 173.2 108.2Z" fill="#223F81"/>
<path d="M169.6 105.6L168.2 107.5C168.2 107.5 168.5 111.6 168.9 111.9C169.3 112.2 170.7 112.3 170.8 111.7C170.9 111.2 170.5 108.3 170.5 108.3L172.4 106.6L169.6 105.6Z" fill="#223F81"/>
<path d="M179.8 107.6C179.8 107.6 178.9 106.1 178.1 103.9C177.3 101.7 176.1 100.4 176 97.9C175.9 95.6 175.5 95.1 173.2 95C173.1 95 172.9 95 172.8 95C172.7 95 172.5 95 172.4 95C170.1 95.1 169.7 95.6 169.6 97.9C169.5 100.4 169.4 100.5 167.5 103.9C166.4 105.9 165.8 107.6 165.8 107.6C165.8 107.6 170.2 109.2 172.8 109.1C175.4 109.1 179.8 107.6 179.8 107.6Z" fill="#F47B53"/>
<path d="M167.9 96.1001C168 95.2001 170.5 94.8001 170.8 95.7001C171.1 96.6001 170.2 98.3001 169.5 99.0001C168.3 97.9001 167.8 97.2001 167.9 96.1001Z" fill="#223F81"/>
<path d="M177.7 96.1001C177.6 95.2001 175.1 94.8001 174.8 95.7001C174.5 96.6001 175.4 98.3001 176.1 99.0001C177.2 97.9001 177.7 97.2001 177.7 96.1001Z" fill="#223F81"/>
<path d="M164.1 95.9C164.1 95.9 162.9 96.1 162 95.2C161.1 94.4 161.2 93.4 161.5 93C161.8 92.6 162.1 92.5 162.4 92.6C162.7 92.7 163.1 93.6 163.4 93.8C163.7 94 163.7 93.1 163.5 92.9C163.3 92.7 163.5 92.4 163.8 92.6C164.1 92.8 164.5 93.8 164.5 94.2C164.6 94.6 164.5 95.4 164.5 95.4L164.1 95.9Z" fill="#CC7F63"/>
<path d="M172.4 86C171.3 86 170.2 86.6 169.6 87.7C169 88.8 169.1 89.1 169.2 89.7C169.3 90.3 169 90.8 168.7 91.2C168.3 91.6 169.1 92 169.2 92C169.3 92 169.6 92.9 170.2 93.7C170.7 94.4 173.2 93.5 173.9 92.9C174.5 92.3 175.6 91.4 175.6 88.9C175.6 86.4 172.4 86.1 172.4 86Z" fill="#CC7F63"/>
<path d="M167.6 88.8C168.3 89.3 168.7 89.4 169.7 89.2C170.7 89 171.4 89.3 171.6 89.7C171.8 90.2 171.9 91.2 171.6 91.6C171.3 92 170.8 91.4 170.8 91.4C170.8 91.4 171 92.5 171.6 92.4C172.2 92.3 172.4 91.9 172.4 91.3C172.4 90.7 172.4 89.9 172.7 89.7C173.3 89.3 173.8 89.9 173.8 90.4C173.8 90.9 173.6 91.4 173.3 91.7C173 92 173.5 93.8 174.8 93.7C175.4 93.7 176.4 93.2 176.5 92.8C175.6 92.7 175.7 92.2 175.9 91.8C176.1 91.4 176.9 90.3 176.8 88.3C176.7 86.2 175.6 85.7 175 85.8C174.4 85.2 173.3 84.4 171.6 84.7C169 85.2 169.4 87 168.9 87.1C168.3 87.2 168.2 87.2 167.9 86.6C166.9 88.2 167.6 88.8 167.6 88.8Z" fill="#020202"/>
<path d="M169.2 112.5C168.6 112.1 167.4 112.3 166.7 113C166 113.7 166.4 114.1 166.4 114.1H170.6C170.9 114.1 171 113.7 171 113.2C171 112.7 170.6 112.5 170.6 112.5C170.6 112.5 170 113.1 169.2 112.5Z" fill="#F47B53"/>
<path d="M173.9 115.9C173.9 115.9 174 115.4 174.5 115.4C175 115.4 175.3 115.7 175.4 116.1C175.5 116.5 175.8 117.4 175.6 118.7C175.4 120.1 174.1 119.5 174.1 119.5L173.4 118.6C173.4 118.6 173.6 116.8 173.7 116.5C173.9 116.2 173.9 115.9 173.9 115.9Z" fill="#F47B53"/>
<path d="M174.6 115.8C175 115.8 175.2 116 175.5 116.4C175.8 116.8 175.6 116.7 175.8 118C175.9 119.3 175.8 119.9 175.2 120.1C174.5 120.3 173.5 119.8 173.6 118.9C173.7 118 173.8 117.5 173.8 116.9C173.7 116.3 174.2 115.9 174.6 115.8Z" fill="#F26339"/>
<path d="M100.3 63.2001L100.6 64.7001C100.6 64.7001 99.5999 64.5001 99.2999 63.7001C99.0999 62.9001 99.4999 62.6001 99.7999 62.5001C100.1 62.4001 100.3 63.2001 100.3 63.2001Z" fill="#D39177"/>
<path d="M106.2 63.2001L105.9 64.7001C105.9 64.7001 106.9 64.5001 107.2 63.7001C107.4 62.9001 107 62.6001 106.7 62.5001C106.4 62.4001 106.2 63.2001 106.2 63.2001Z" fill="#D39177"/>
<path d="M99.3999 66.3C99.3999 66.3 98.1999 64.9 97.3999 64.1C97.2999 63.9 97.0999 63.8 96.9999 63.7C96.2999 63 94.9999 63.7 95.7999 65.4C96.6999 67 98.7999 68.6 99.4999 68.6C100.2 68.4 99.3999 66.3 99.3999 66.3Z" fill="#D39177"/>
<path d="M109.8 79.1001L107.5 76.6001L106.9 76.2001L106.8 75.7001C106.8 75.7001 106.1 74.6001 104.6 74.6001C103.1 74.6001 103.3 74.5001 102 74.6001C100.9 74.7001 99.7 75.4001 99.2 76.5001L99.1 76.6001L96.8 79.1001C96.8 79.1001 96.1 80.5001 97.5 81.7001C98.8 83.0001 100.2 82.1001 100.6 81.6001C101 81.1001 102 79.5001 102 79.5001H102.1C102.5 79.5001 102.8 79.5001 103 79.5001C103.4 79.5001 103.9 79.5001 104.3 79.4001L104.5 79.5001C104.5 79.5001 105.5 81.1001 105.9 81.6001C106.3 82.1001 107.7 83.0001 109 81.7001C110.3 80.4001 109.7 79.1001 109.8 79.1001Z" fill="#52AADD"/>
<path d="M99.4866 82.0259C100.241 81.683 100.5 80.6307 100.066 79.6755C99.6313 78.7203 98.6679 78.2239 97.9138 78.5668C97.1597 78.9097 96.9004 79.962 97.3348 80.9172C97.7691 81.8724 98.7325 82.3688 99.4866 82.0259Z" fill="#227BC0"/>
<path d="M97.9001 78.7C97.9001 78.7 96.1001 80 95.8001 80.9C95.5001 81.8 96.2 83 97.2 83.2C98.2 83.4 99.3 81.9 99.7 81.4C100.9 80.1 99.5001 77.7 97.9001 78.7Z" fill="#D39177"/>
<path d="M95.8001 80.9C95.8001 80.9 95.5001 81.4 96.1001 83.8C96.6001 86.3 96.9001 86.4 97.6001 86.6C98.2001 86.7 98.5001 86.1 98.6001 85C98.6001 83.9 98.9001 82.9 98.8001 81.9C98.5001 81 97.4001 79.4 95.8001 80.9Z" fill="#D39177"/>
<path d="M92.7 86.1001C92.7 86.1001 92.9 85.4001 93.5 85.1001C94.1 84.8001 95.6 85.2001 95.9 85.2001C96.2 85.2001 97 84.8001 97.9 85.4001C98.8 86.0001 98.8 86.6001 98.8 87.0001C98.8 87.4001 99.2 88.9001 98.1 89.4001C97 89.8001 95.2 87.6001 95.2 87.6001L93.8 87.1001L92.7 86.1001Z" fill="#F47B53"/>
<path d="M94.3999 85.5001C92.7999 85.3001 92.5999 86.2001 92.5999 86.2001C92.5999 86.2001 91.9999 87.0001 93.2999 88.0001C94.4999 89.0001 95.9999 89.0001 96.7999 89.2001C97.5999 89.4001 97.9999 89.8001 98.3999 88.8001C98.7999 87.8001 98.2999 87.8001 97.5999 87.3001C96.8999 86.8001 95.9999 85.7001 94.3999 85.5001Z" fill="#F26339"/>
<path d="M109.258 80.9109C109.692 79.9557 109.433 78.9034 108.679 78.5605C107.925 78.2176 106.961 78.714 106.527 79.6692C106.093 80.6244 106.352 81.6768 107.106 82.0197C107.86 82.3625 108.824 81.8661 109.258 80.9109Z" fill="#227BC0"/>
<path d="M108.7 78.7C108.7 78.7 110.5 80 110.8 80.9C111.1 81.8 110.4 83 109.4 83.2C108.4 83.4 107.3 81.9 106.9 81.4C105.7 80.1 107 77.7 108.7 78.7Z" fill="#D39177"/>
<path d="M110.8 80.9C110.8 80.9 111.1 81.4 110.5 83.8C110 86.3 109.7 86.4 109 86.6C108.4 86.7 108.1 86.1 108 85C108 83.9 107.7 82.9 107.8 81.9C108.1 81 109.2 79.4 110.8 80.9Z" fill="#D39177"/>
<path d="M113.9 86.1001C113.9 86.1001 113.7 85.4001 113.1 85.1001C112.5 84.8001 111 85.2001 110.7 85.2001C110.4 85.2001 109.6 84.8001 108.7 85.4001C107.8 86.0001 107.8 86.6001 107.8 87.0001C107.8 87.4001 107.4 88.9001 108.5 89.4001C109.6 89.8001 111.4 87.6001 111.4 87.6001L112.8 87.1001L113.9 86.1001Z" fill="#F47B53"/>
<path d="M112.2 85.5001C113.8 85.3001 114 86.2001 114 86.2001C114 86.2001 114.6 87.0001 113.3 88.0001C112.1 89.0001 110.6 89.0001 109.8 89.2001C109 89.4001 108.6 89.8001 108.2 88.8001C107.8 87.8001 108.3 87.8001 109 87.3001C109.7 86.8001 110.6 85.7001 112.2 85.5001Z" fill="#F26339"/>
<path d="M106.4 66.6001C105.6 66.1001 104.4 66.1001 103.4 66.1001C102.4 66.1001 101.2 66.1001 100.4 66.6001C99.2 67.2001 100.2 69.5001 100.1 70.8001C99.9 72.2001 99.9 74.2001 99.9 75.3001C99.9 76.4001 101.8 76.9001 103.4 77.0001C105.1 77.0001 106.9 76.5001 106.9 75.3001C106.9 74.2001 106.9 72.2001 106.7 70.8001C106.5 69.5001 107.5 67.2001 106.4 66.6001Z" fill="#D4D5D4"/>
<path d="M97.3 67.9001C98.2 68.7001 99.8 69.1001 100.5 68.5001C101.2 67.9001 100.4 65.7001 99.1 65.1001C97.9 66.6001 97.3 67.9001 97.3 67.9001Z" fill="#D4D5D4"/>
<path d="M103.3 59C101 59 100.1 60.4 100.1 61.6C100.1 62.3 100 63.6 100.8 65.4C101.5 67 102.6 67.4 103.2 67.4C103.9 67.4 104.9 67.3 105.6 65.4C106.3 63.6 106.3 62.2 106.3 61.6C106.4 60.4 105.6 59 103.3 59Z" fill="#D39177"/>
<path d="M93.9 60C93.9 60 97.6 63.6 97.3 64.6C97 65.6 96.9 65.9 95.9 65.5C94.9 65.1 93.4 62.2 93.3 61.5C93.1 60.8 93.2 60.1 93.9 60Z" fill="#D39177"/>
<path d="M106.6 66.6001C106.6 66.6001 107.8 65.2001 108.6 64.4001C108.7 64.2001 108.9 64.1001 109 64.0001C109.7 63.3001 111 64.0001 110.2 65.7001C109.3 67.3001 107.2 68.9001 106.5 68.9001C105.8 68.9001 106.6 66.6001 106.6 66.6001Z" fill="#D39177"/>
<path d="M108.7 68.2C107.8 69 106.2 69.4 105.5 68.8C104.9 68.3 105.6 66 106.9 65.4C108.1 66.8 108.7 68.2 108.7 68.2Z" fill="#D4D5D4"/>
<path d="M112.1 60.3C112.1 60.3 108.4 63.9001 108.7 64.9001C109 65.9001 109.1 66.2001 110.1 65.8001C111.1 65.4001 112.6 62.5 112.7 61.8C112.9 61 112.8 60.4 112.1 60.3Z" fill="#D39177"/>
<path d="M92.4 60.8001C92.8 61.5001 93.7 61.9001 94.2 61.6001C94.7 61.3001 94.7 60.4001 94.4 60.0001C94.1 59.6001 93.9 58.7001 93.2 59.0001C92.6 59.3001 92.2 59.7001 92 60.1001C91.8 60.3001 92.4 60.8001 92.4 60.8001Z" fill="#D39177"/>
<path d="M94.2002 61.4001C95.1002 60.9001 94.9002 58.8001 94.9002 58.5001C94.9002 58.2001 94.6002 57.9001 94.4002 58.2001C94.2002 58.5001 94.2002 58.8001 94.2002 58.8001C94.2002 58.9001 94.1002 59.4001 93.7002 59.1001C93.3002 58.8001 93.6002 59.9001 93.6002 59.9001L93.8002 60.4001L94.2002 61.4001Z" fill="#D39177"/>
<path d="M92.2001 60.5C92.2001 60.5 91.0001 59.8 90.8001 59.6C90.6001 59.4 91.0001 59.1 91.2001 59.2C91.4001 59.3 92.4001 59.8 92.5001 59.9C92.6001 60.2 92.2001 60.5 92.2001 60.5Z" fill="#D39177"/>
<path d="M92.3002 60.0001C92.3002 60.0001 91.3002 59.1001 90.9002 58.8001C90.6002 58.5001 91.0002 58.1001 91.3002 58.4001C91.5002 58.6001 92.6002 59.2001 92.6002 59.5001C92.7002 59.7001 92.3002 60.0001 92.3002 60.0001Z" fill="#D39177"/>
<path d="M92.6001 59.5C92.6001 59.5 91.7001 58.2 91.5001 57.8C91.3001 57.4 91.7001 57.1 92.0001 57.5C92.2001 57.7 93.0001 58.8 93.0001 59.1C93.1001 59.3 92.6001 59.5 92.6001 59.5Z" fill="#D39177"/>
<path d="M93.8001 59.2001C93.8001 59.2001 93.5001 57.9 93.2001 57.3C93.1001 56.9 92.5001 57.1001 92.6001 57.4001C92.7001 57.7001 92.9001 59 93.0001 59.3C93.1001 59.6 93.8001 59.2001 93.8001 59.2001Z" fill="#D39177"/>
<path d="M113.6 60.8001C113.2 61.5001 112.3 61.9001 111.8 61.6001C111.3 61.3001 111.3 60.4001 111.6 60.0001C111.9 59.6001 112.1 58.7001 112.8 59.0001C113.4 59.3001 113.8 59.7001 114 60.1001C114.1 60.3001 113.6 60.8001 113.6 60.8001Z" fill="#D39177"/>
<path d="M111.7 61.5C110.8 61 111 58.9 111 58.6C111 58.3 111.3 58 111.5 58.3C111.7 58.6 111.7 58.9 111.7 58.9C111.7 58.9 111.8 59.5 112.2 59.2C112.6 58.9 112.3 60 112.3 60L112.1 60.5L111.7 61.5Z" fill="#D39177"/>
<path d="M113.7 60.6C113.7 60.6 114.9 59.9 115.1 59.7C115.3 59.5 114.9 59.2 114.7 59.3C114.5 59.4 113.5 59.9 113.4 60C113.3 60.3 113.7 60.6 113.7 60.6Z" fill="#D39177"/>
<path d="M113.6 60.0001C113.6 60.0001 114.6 59.1001 115 58.8001C115.3 58.5001 114.9 58.1001 114.6 58.4001C114.4 58.6001 113.3 59.2001 113.3 59.5001C113.2 59.7001 113.6 60.0001 113.6 60.0001Z" fill="#D39177"/>
<path d="M113.3 59.5C113.3 59.5 114.2 58.2 114.4 57.8C114.6 57.4 114.2 57.1 113.9 57.5C113.7 57.7 112.9 58.8 112.9 59.1C112.8 59.3 113.3 59.5 113.3 59.5Z" fill="#D39177"/>
<path d="M112.1 59.2001C112.1 59.2001 112.4 57.9 112.7 57.3C112.8 56.9 113.4 57.1001 113.3 57.4001C113.2 57.7001 113 59 112.9 59.3C112.6 59.5 112.1 59.2001 112.1 59.2001Z" fill="#D39177"/>
<path d="M100.2 64C100.3 64.3 100.7 64.2 100.7 63.9C100.7 63.6 100.4 62.4 100.7 61.5C101 60.6 101.8 60.4 102.5 60.5C103.1 60.6 104.2 60.6 104.7 60.5C105.2 60.4 105.9 60.7 106 61.1C106.1 61.5 106.1 63.1 106 63.6C105.9 64.1 106.3 64.2 106.5 63.8C106.7 63.4 106.9 61.7 106.9 61.1V60.5C106.9 60.5 107.6 58.5 106 57.7C104.5 56.9 103.2 58 102.4 58.2C101.6 58.4 101.3 58.5 100.7 58.9C100.1 59.6 98.6001 60.7 100.2 64Z" fill="#020202"/>
<path d="M56 73.8C56 73.8 56.3 70.1 56 69.3C55.7 68.5 60.1 69.9 60.4 70.7C60.7 71.5 61.1 73.8 61.1 73.8H56Z" fill="#D39177"/>
<path d="M61.9 136.2C61.9 136.2 61.4 137.1 61.4 138.1C61.4 139.1 61.3 140.4 61.5 140.6C61.7 140.8 61.8 141.1 62.4 141.1H72.2C73.2 141.1 72.8 138.9 71.9 138.7C68.7 137.9 67 136.8 66.3 136.8C65.7 136.8 61.9 136.2 61.9 136.2Z" fill="#020202"/>
<path d="M57.4999 100.6C57.4999 100.6 57.1999 101.2 57.2999 104.8C57.2999 108.5 58 110.2 58.9 112.6C59.8 115 61.2999 118.3 61.5999 122.5C61.8999 126.7 61.7999 127.6 61.5999 131.7C61.3999 135.8 61 136.6 61.9 137.4C62.9 138.2 66.4 137.3 66.9 136.8C67.5 136.3 68.3999 125.3 68.5999 122C68.7999 118.8 69.3999 117 67.9999 110C66.6999 103 67.7 100.8 65.3 99.9001C63 99.1001 57.4999 100.6 57.4999 100.6Z" fill="#91543D"/>
<path d="M56.4 136.2C56.4 136.2 55.9 137.1 55.9 138.1C55.9 139.1 55.8 140.4 56 140.6C56.2 140.8 56.3 141.1 56.9 141.1H66.7C67.7 141.1 67.3 138.9 66.4 138.7C63.2 137.9 61.5 136.8 60.8 136.8C60.2 136.8 56.4 136.2 56.4 136.2Z" fill="#020202"/>
<path d="M66.9001 141.1L66.6001 140.9C66.6001 140.9 67.3001 139.8 67.0001 139.1C66.9001 138.8 66.5001 138.5 66.0001 138.4C63.6001 137.8 61.6001 137.3 61.6001 137.3L61.7001 136.9C61.7001 136.9 63.7001 137.5 66.1001 138C66.8001 138.1 67.2001 138.5 67.4001 138.9C67.7001 139.9 66.9001 141.1 66.9001 141.1Z" fill="#58595B"/>
<path d="M55.3 99.8C55.3 99.8 55 100.3 54.8 104C54.6 107.7 55 109.4 55.8 111.9C56.6 114.4 58 114.9 58 119.2C58 123.5 57.6 127.1 57 131.2C56.5 135.3 56 136 56.9 136.9C57.8 137.8 61 137.8 61.6 137.3C62.2 136.8 64.3 125.3 64.8 122.1C65.3 118.9 66 117.2 65.2 110.1C64.4 103 65.7 100.9 63.3 99.8C60.8 98.8 55.3 99.8 55.3 99.8Z" fill="#91543D"/>
<path d="M61.6999 137.4L61.3999 137.2C61.8999 136.1 62.3999 133 62.8999 130.1C63.2999 127.3 63.7999 124.4 64.2999 122.9C65.4999 119.3 65.4999 118.8 64.8999 114.3C64.0999 108 63.8999 106 63.8999 106V105.8H64.0999C64.0999 105.8 65.2999 105.7 65.5999 105L65.9999 105.1C65.7999 105.9 64.7999 106.1 64.3999 106.2C64.4999 106.8 64.6999 109.1 65.3999 114.3C65.9999 118.9 65.9999 119.4 64.7999 123C64.2999 124.5 63.7999 127.3 63.3999 130.1C62.6999 133.2 62.2999 136.2 61.6999 137.4Z" fill="#754233"/>
<path d="M55.0999 74.5C56.3999 73.8 58.3999 73.8 59.7999 73.9C61.9999 74 65.0999 76.1 65.8999 80.6C66.6999 85.1 71.0999 93.2 68.8999 98C67.0999 102 65.5999 102.5 61.3999 102.5C57.1999 102.5 55.6999 101.6 55.0999 101.6C54.4999 101.6 53.1999 97.5 53.6999 95.1C54.1999 92.7 53.5999 83.9 53.3999 81.3C52.9999 77.1 53.1999 75.5 55.0999 74.5Z" fill="#056EB4"/>
<path d="M54.3001 75C52.7001 75.9 49.6001 79.5 47.6001 82.3C45.6001 85.1 46.1001 86.4 46.7001 87.1C47.3001 87.8 49.7001 87.4 51.1001 85.4C52.6001 83.4 55.2001 81.7 56.3001 81.2C57.5001 80.7 58.5001 78.1 57.5001 76.4C56.6001 74.7 54.3001 75 54.3001 75Z" fill="#056EB4"/>
<path d="M46.5 84.5001C46.5 84.5001 48.4 82.6001 50.3 85.4001C52.2 88.2001 52.7 89.2001 53.5 92.5001C53.7 93.8001 52.3 95.2001 51 93.8001C49.7 92.5001 44.6 88.6001 46.5 84.5001Z" fill="#056EB4"/>
<path d="M55.1001 74.5C55.1001 74.5 55.4001 73.5 55.6001 73.1C55.8001 72.7 60.6001 72.7 61.9001 72.9C62.4001 74.1 62.7001 75.5 62.7001 75.5C62.7001 75.5 61.2001 74.3 55.1001 74.5Z" fill="#13A1DC"/>
<path d="M53.5 92.4C53.5 92.4 54.7 93.4 54.8 94.4C54.9 95.4 54.5 96.4 54.6 97.8C54.7 99.2 55.2 100.7 55.2 100.7C55.2 100.7 54.4 100.8 53.7 99.4C53 98 53.2 97.3 53 96C52.8 94.7 51.7 94.8 52.1 93.8C52.6 92.7 53.5 92.4 53.5 92.4Z" fill="#D39177"/>
<path d="M50.8 93.6C50.8 93.6 53.3001 92.1 53.4001 91.5C53.8001 92.1 54.1 92.7 54.1 93.1C54.1 93.5 52.9 94.8 52.1 94.9C51.3 95.1 51.3 94.6 50.8 93.6Z" fill="#13A1DC"/>
<path d="M54 63.2C54.8 60.4 57.6 59.8 59.4 60.1C61.2 60.4 61.5 61.6 61.9 62.3C62.3 63 62.7 64.3 62.7 64.3L64.4 66.2C64.4 66.2 64.4 67.1 63.8 67.4C64 68.3 63.7 69.3 63.6 70.7C63.5 72.1 59.7 73.3 57 71.3C54.7 69.4 53.1 66.3 54 63.2Z" fill="#D39177"/>
<path d="M57.9999 63.3001C58.9999 63.0001 62.5999 62.2001 62.8999 60.8001C63.1999 59.4001 62.5999 57.5001 60.5999 57.6001C58.6999 57.7001 57.4999 59.0001 56.4999 59.4001C55.4999 59.8001 52.2999 62.0001 52.1999 63.2001C52.0999 64.3001 52.2999 67.0001 53.4999 68.8001C54.6999 70.6001 56.0999 71.6001 56.5999 70.9001C57.0999 70.2001 57.5999 69.6001 56.4999 68.9001C55.3999 68.2001 54.4999 66.4001 55.7999 65.7001C57.0999 65.1001 56.9999 65.8001 57.2999 66.7001C57.5999 67.6001 57.4999 68.5001 57.9999 68.5001C58.4999 68.5001 58.9999 68.4001 58.5999 67.4001C58.1999 66.4001 57.3999 63.5001 57.9999 63.3001Z" fill="#020202"/>
<path d="M58.7 67.4001C58.7 67.4001 59.3 70.8 61.5 70.7C63.8 70.5 63.5 70.3001 63.8 69.9001C64.2 69.5001 64.7 71.4 64.7 72.2C64.7 73 61.7 72.7 60.5 72C59.3 71.3 58.2 70.8 57.5 67.7C58 66.9 58.7 67.4001 58.7 67.4001Z" fill="#020202"/>
</g>
</svg>
