<svg version="1.1" id="Layer_1" xmlns="http://www.w3.org/2000/svg" xmlns:xlink="http://www.w3.org/1999/xlink" x="0px" y="0px" viewBox="0 0 108 20" style="enable-background:new 0 0 108 20;" xml:space="preserve"><style type="text/css">
	.st0{fill:#ffffff;}
</style><g><path class="st0" d="M9.86,2.45c-0.52-0.52-1.2-0.78-1.88-0.78c-0.68,0-1.36,0.26-1.88,0.78L6,2.56L5.89,2.67l3.36,3.36l3.36,3.36
		l-3.36,3.36L5.89,16.1L6,16.21l0.11,0.11c0.52,0.52,1.2,0.78,1.88,0.78c0.68,0,1.36-0.26,1.88-0.78l3.47-3.47l3.47-3.47l-3.47-3.47
		L9.86,2.45z"></path><path class="st0" d="M10.43,9.38L8.08,7.03L5.72,4.67C5.43,4.39,5.06,4.24,4.68,4.24c-0.38,0-0.75,0.14-1.04,0.43L3.12,5.2
		L2.59,5.73l1.83,1.83l1.83,1.83l-1.83,1.83l-1.83,1.83l0.53,0.53l0.53,0.53c0.29,0.29,0.66,0.43,1.04,0.43
		c0.38,0,0.75-0.14,1.04-0.43l2.35-2.35L10.43,9.38z"></path><path class="st0" d="M4.25,9.38L2.98,8.11L1.71,6.84L1.19,7.37L0.67,7.89C0.25,8.3,0.05,8.84,0.05,9.38s0.21,1.08,0.62,1.49
		l0.52,0.52l0.52,0.52l1.27-1.27L4.25,9.38z"></path><path class="st0" d="M23.71,8.11c0.14-0.17,0.32-0.3,0.52-0.4c0.2-0.1,0.43-0.15,0.67-0.15c0.24,0,0.47,0.05,0.7,0.16
		c0.23,0.1,0.41,0.24,0.54,0.42l1.36-1.58C27.37,6.41,27.2,6.28,27,6.16c-0.2-0.12-0.41-0.22-0.64-0.3
		c-0.23-0.08-0.48-0.15-0.73-0.19c-0.25-0.05-0.51-0.07-0.77-0.07c-0.55,0-1.08,0.09-1.56,0.27c-0.49,0.18-0.91,0.43-1.27,0.76
		c-0.36,0.33-0.64,0.73-0.85,1.2c-0.21,0.47-0.31,0.99-0.31,1.58c0,0.59,0.1,1.12,0.31,1.59c0.21,0.47,0.49,0.87,0.85,1.2
		c0.36,0.33,0.79,0.58,1.27,0.75c0.49,0.17,1.02,0.26,1.58,0.26c0.53,0,1.02-0.08,1.49-0.24c0.47-0.16,0.85-0.39,1.15-0.67
		l-1.3-1.59c-0.14,0.17-0.33,0.3-0.57,0.39c-0.23,0.09-0.47,0.14-0.71,0.14c-0.26,0-0.49-0.05-0.7-0.14
		c-0.21-0.1-0.38-0.23-0.53-0.39c-0.15-0.17-0.26-0.36-0.34-0.58c-0.08-0.22-0.11-0.45-0.11-0.7c0-0.25,0.04-0.48,0.12-0.7
		C23.46,8.47,23.57,8.28,23.71,8.11z"></path><path class="st0" d="M34.36,6.6C34,6.28,33.58,6.03,33.1,5.86c-0.48-0.17-0.99-0.26-1.53-0.26c-0.54,0-1.04,0.09-1.53,0.26
		c-0.48,0.17-0.9,0.42-1.26,0.75c-0.36,0.32-0.64,0.72-0.85,1.19c-0.21,0.47-0.32,0.99-0.32,1.58c0,0.58,0.1,1.11,0.32,1.58
		c0.21,0.47,0.49,0.87,0.85,1.2c0.36,0.33,0.78,0.59,1.26,0.77c0.48,0.18,0.99,0.27,1.53,0.27c0.54,0,1.06-0.09,1.53-0.27
		c0.48-0.18,0.9-0.44,1.26-0.77c0.36-0.33,0.65-0.73,0.86-1.2c0.21-0.47,0.32-1,0.32-1.58c0-0.58-0.11-1.11-0.32-1.58
		C35.01,7.32,34.73,6.93,34.36,6.6z M33.17,10.04c-0.07,0.22-0.18,0.42-0.32,0.59c-0.14,0.18-0.32,0.32-0.53,0.42
		c-0.21,0.11-0.45,0.16-0.73,0.16c-0.28,0-0.52-0.05-0.73-0.16c-0.21-0.1-0.39-0.25-0.53-0.42c-0.14-0.18-0.25-0.38-0.32-0.59
		c-0.07-0.22-0.11-0.44-0.11-0.67S29.93,8.91,30,8.69c0.07-0.22,0.18-0.41,0.32-0.58c0.14-0.17,0.31-0.3,0.52-0.41
		c0.21-0.1,0.45-0.16,0.73-0.16c0.28,0,0.52,0.05,0.73,0.16c0.21,0.11,0.39,0.24,0.53,0.41c0.14,0.17,0.25,0.36,0.33,0.58
		c0.08,0.22,0.11,0.44,0.11,0.67S33.24,9.82,33.17,10.04z"></path><rect x="36.61" y="8.46" class="st0" width="3.64" height="1.86"></rect><path class="st0" d="M48.07,6.6c-0.36-0.32-0.78-0.57-1.26-0.75c-0.48-0.17-0.99-0.26-1.53-0.26c-0.54,0-1.04,0.09-1.53,0.26
		c-0.48,0.17-0.9,0.42-1.26,0.75c-0.36,0.32-0.64,0.72-0.85,1.19c-0.21,0.47-0.32,0.99-0.32,1.58c0,0.58,0.1,1.11,0.32,1.58
		c0.21,0.47,0.49,0.87,0.85,1.2c0.36,0.33,0.78,0.59,1.26,0.77c0.48,0.18,0.99,0.27,1.53,0.27c0.54,0,1.06-0.09,1.53-0.27
		c0.48-0.18,0.9-0.44,1.26-0.77c0.36-0.33,0.65-0.73,0.86-1.2c0.21-0.47,0.32-1,0.32-1.58c0-0.58-0.11-1.11-0.32-1.58
		C48.72,7.32,48.43,6.93,48.07,6.6z M46.87,10.04c-0.07,0.22-0.18,0.42-0.32,0.59c-0.14,0.18-0.32,0.32-0.53,0.42
		c-0.21,0.11-0.45,0.16-0.73,0.16c-0.28,0-0.52-0.05-0.73-0.16c-0.21-0.1-0.39-0.25-0.53-0.42c-0.14-0.18-0.25-0.38-0.32-0.59
		C43.63,9.82,43.6,9.6,43.6,9.37s0.04-0.45,0.11-0.67c0.07-0.22,0.18-0.41,0.32-0.58c0.14-0.17,0.31-0.3,0.52-0.41
		c0.21-0.1,0.45-0.16,0.73-0.16c0.28,0,0.52,0.05,0.73,0.16c0.21,0.11,0.39,0.24,0.53,0.41c0.14,0.17,0.25,0.36,0.33,0.58
		c0.08,0.22,0.11,0.44,0.11,0.67S46.94,9.82,46.87,10.04z"></path><path class="st0" d="M57.18,6.74c-0.29-0.34-0.65-0.62-1.07-0.82c-0.42-0.2-0.89-0.3-1.4-0.3c-0.53,0-0.98,0.11-1.37,0.32
		c-0.39,0.21-0.69,0.47-0.91,0.75h-0.04V5.83h-2.24V16.4h2.35v-4.23h0.03c0.22,0.31,0.53,0.55,0.92,0.72
		c0.39,0.18,0.81,0.26,1.25,0.26c0.53,0,1.01-0.11,1.43-0.32c0.42-0.21,0.78-0.49,1.07-0.84c0.29-0.35,0.51-0.75,0.67-1.21
		c0.15-0.46,0.23-0.94,0.23-1.43c0-0.5-0.08-0.97-0.24-1.43C57.7,7.49,57.47,7.09,57.18,6.74z M55.7,10.05
		c-0.07,0.22-0.18,0.42-0.32,0.59c-0.14,0.17-0.31,0.31-0.52,0.42c-0.21,0.11-0.45,0.16-0.73,0.16c-0.27,0-0.51-0.05-0.72-0.16
		c-0.21-0.1-0.39-0.24-0.54-0.42c-0.15-0.17-0.26-0.37-0.34-0.59c-0.08-0.22-0.12-0.44-0.12-0.67c0-0.23,0.04-0.45,0.12-0.67
		c0.08-0.22,0.2-0.42,0.34-0.59c0.15-0.17,0.33-0.31,0.54-0.42c0.21-0.1,0.45-0.16,0.72-0.16c0.28,0,0.52,0.05,0.73,0.16
		c0.21,0.11,0.38,0.24,0.52,0.41c0.14,0.17,0.24,0.36,0.32,0.58c0.07,0.22,0.11,0.44,0.11,0.67S55.77,9.82,55.7,10.05z"></path><path class="st0" d="M65.3,6.63c-0.32-0.33-0.69-0.59-1.13-0.77c-0.44-0.18-0.92-0.27-1.45-0.27c-0.54,0-1.05,0.09-1.52,0.27
		c-0.47,0.18-0.87,0.44-1.22,0.77c-0.34,0.33-0.62,0.73-0.82,1.2c-0.2,0.47-0.3,1-0.3,1.58c0,0.6,0.1,1.14,0.31,1.6
		c0.21,0.47,0.49,0.86,0.85,1.18c0.36,0.32,0.78,0.56,1.25,0.73c0.48,0.17,0.98,0.25,1.52,0.25c0.73,0,1.36-0.13,1.91-0.39
		c0.55-0.26,0.99-0.64,1.33-1.13l-1.63-1.03c-0.16,0.22-0.37,0.4-0.63,0.54c-0.26,0.14-0.57,0.21-0.95,0.21
		c-0.21,0-0.41-0.03-0.61-0.1c-0.2-0.07-0.37-0.16-0.53-0.28c-0.16-0.12-0.29-0.26-0.39-0.42c-0.1-0.16-0.16-0.34-0.18-0.54h5.17
		c0.01-0.09,0.01-0.18,0.01-0.27V9.48c0-0.61-0.09-1.16-0.27-1.63C65.86,7.37,65.61,6.96,65.3,6.63z M61.11,8.58
		c0.01-0.18,0.06-0.36,0.14-0.52c0.09-0.17,0.2-0.31,0.34-0.44c0.14-0.12,0.31-0.22,0.5-0.29c0.19-0.07,0.4-0.11,0.63-0.11
		c0.47,0,0.82,0.13,1.05,0.4c0.23,0.27,0.35,0.59,0.35,0.96H61.11z"></path><path class="st0" d="M71.44,5.63c-0.44,0-0.83,0.12-1.16,0.35C69.94,6.2,69.68,6.5,69.5,6.87h-0.03V5.84h-2.26v7.13h2.35V9.31
		c0-0.14,0.03-0.31,0.09-0.5c0.06-0.19,0.15-0.37,0.28-0.53c0.13-0.16,0.3-0.3,0.52-0.41c0.21-0.11,0.48-0.17,0.8-0.17
		c0.1,0,0.19,0,0.29,0.01c0.1,0.01,0.2,0.03,0.31,0.06l0.1-2.08c-0.06-0.02-0.13-0.03-0.22-0.04C71.63,5.63,71.53,5.63,71.44,5.63z"></path><path class="st0" d="M78.26,6.51C78,6.2,77.66,5.97,77.25,5.82c-0.42-0.15-0.92-0.22-1.53-0.22c-0.58,0-1.15,0.1-1.71,0.3
		c-0.56,0.2-1.05,0.5-1.47,0.9l1.19,1.28c0.22-0.2,0.48-0.37,0.8-0.52c0.31-0.14,0.63-0.21,0.97-0.21c0.36,0,0.67,0.08,0.92,0.25
		c0.25,0.17,0.37,0.43,0.37,0.78v0.11c-0.52,0-1.05,0.03-1.59,0.09c-0.54,0.06-1.04,0.17-1.48,0.34c-0.44,0.17-0.81,0.42-1.09,0.73
		c-0.28,0.31-0.42,0.73-0.42,1.25c0,0.42,0.08,0.77,0.24,1.06c0.16,0.29,0.37,0.52,0.62,0.69c0.25,0.17,0.53,0.3,0.84,0.37
		c0.31,0.08,0.6,0.11,0.89,0.11c0.43,0,0.83-0.08,1.2-0.24c0.37-0.16,0.64-0.39,0.82-0.69h0.04v0.76H79v-3.6
		c0-0.65-0.06-1.21-0.18-1.68C78.7,7.21,78.52,6.82,78.26,6.51z M76.85,10.1c0,0.45-0.13,0.8-0.38,1.07
		c-0.25,0.26-0.62,0.39-1.1,0.39c-0.11,0-0.23-0.01-0.36-0.04c-0.12-0.02-0.23-0.06-0.33-0.12c-0.1-0.06-0.17-0.13-0.24-0.23
		c-0.06-0.1-0.09-0.21-0.09-0.34c0-0.21,0.07-0.38,0.2-0.51c0.13-0.13,0.3-0.23,0.51-0.29c0.21-0.07,0.44-0.11,0.7-0.14
		c0.26-0.02,0.52-0.04,0.78-0.04h0.3V10.1z"></path><path class="st0" d="M82.99,3.95h-2.31v1.88h-1.13v1.75h1.15v3.02c0,0.38,0.04,0.73,0.13,1.04c0.09,0.31,0.23,0.58,0.42,0.8
		c0.2,0.23,0.46,0.4,0.78,0.52c0.32,0.12,0.73,0.18,1.2,0.18c0.25,0,0.5-0.02,0.75-0.06c0.25-0.04,0.45-0.09,0.62-0.15l-0.03-1.72
		c-0.09,0.04-0.19,0.07-0.32,0.09c-0.13,0.02-0.25,0.03-0.37,0.03c-0.33,0-0.57-0.08-0.7-0.25c-0.13-0.17-0.19-0.42-0.19-0.76V7.58
		h1.68V5.83h-1.68V3.95z"></path><path class="st0" d="M91.9,6.6c-0.36-0.32-0.78-0.57-1.26-0.75c-0.48-0.17-0.99-0.26-1.53-0.26c-0.54,0-1.04,0.09-1.53,0.26
		c-0.48,0.17-0.9,0.42-1.26,0.75c-0.36,0.32-0.64,0.72-0.85,1.19c-0.21,0.47-0.32,0.99-0.32,1.58c0,0.58,0.1,1.11,0.32,1.58
		c0.21,0.47,0.49,0.87,0.85,1.2c0.36,0.33,0.78,0.59,1.26,0.77c0.48,0.18,0.99,0.27,1.53,0.27c0.54,0,1.06-0.09,1.53-0.27
		c0.48-0.18,0.9-0.44,1.26-0.77c0.36-0.33,0.65-0.73,0.86-1.2c0.21-0.47,0.32-1,0.32-1.58c0-0.58-0.11-1.11-0.32-1.58
		C92.55,7.32,92.27,6.93,91.9,6.6z M90.71,10.04c-0.07,0.22-0.18,0.42-0.32,0.59c-0.14,0.18-0.32,0.32-0.53,0.42
		c-0.21,0.11-0.45,0.16-0.73,0.16c-0.28,0-0.52-0.05-0.73-0.16c-0.21-0.1-0.39-0.25-0.53-0.42c-0.14-0.18-0.25-0.38-0.32-0.59
		c-0.07-0.22-0.11-0.44-0.11-0.67s0.04-0.45,0.11-0.67c0.07-0.22,0.18-0.41,0.32-0.58c0.14-0.17,0.31-0.3,0.52-0.41
		c0.21-0.1,0.45-0.16,0.73-0.16c0.28,0,0.52,0.05,0.73,0.16c0.21,0.11,0.39,0.24,0.53,0.41c0.14,0.17,0.25,0.36,0.33,0.58
		c0.08,0.22,0.11,0.44,0.11,0.67S90.78,9.82,90.71,10.04z"></path><path class="st0" d="M98.16,5.63c-0.44,0-0.83,0.12-1.16,0.35C96.66,6.2,96.4,6.5,96.22,6.87h-0.03V5.84h-2.26v7.13h2.35V9.31
		c0-0.14,0.03-0.31,0.09-0.5c0.06-0.19,0.15-0.37,0.28-0.53c0.13-0.16,0.3-0.3,0.52-0.41c0.21-0.11,0.48-0.17,0.8-0.17
		c0.1,0,0.19,0,0.29,0.01c0.1,0.01,0.2,0.03,0.31,0.06l0.1-2.08c-0.06-0.02-0.13-0.03-0.22-0.04C98.34,5.63,98.25,5.63,98.16,5.63z"></path><path class="st0" d="M101.6,7.42c0.19-0.09,0.39-0.13,0.61-0.13c0.29,0,0.56,0.06,0.82,0.19c0.26,0.12,0.48,0.28,0.67,0.46
		l1.29-1.33c-0.35-0.33-0.79-0.59-1.3-0.75c-0.51-0.17-1.03-0.25-1.57-0.25c-0.34,0-0.69,0.05-1.04,0.14
		c-0.35,0.09-0.67,0.23-0.95,0.42c-0.29,0.19-0.52,0.44-0.7,0.74c-0.18,0.3-0.27,0.67-0.27,1.1c0,0.33,0.06,0.62,0.19,0.86
		c0.12,0.24,0.28,0.44,0.48,0.6c0.2,0.16,0.42,0.29,0.67,0.39c0.25,0.1,0.5,0.17,0.74,0.23c0.49,0.11,0.85,0.22,1.07,0.33
		c0.23,0.11,0.34,0.27,0.34,0.49c0,0.23-0.09,0.39-0.28,0.48c-0.19,0.09-0.38,0.14-0.57,0.14c-0.34,0-0.67-0.08-0.97-0.23
		c-0.31-0.15-0.56-0.34-0.77-0.57l-1.32,1.39c0.37,0.36,0.84,0.64,1.4,0.82c0.56,0.19,1.13,0.28,1.71,0.28
		c0.36,0,0.73-0.04,1.09-0.13c0.36-0.09,0.69-0.22,0.98-0.42c0.29-0.19,0.53-0.44,0.71-0.75c0.18-0.31,0.27-0.69,0.27-1.14
		c0-0.34-0.07-0.64-0.2-0.89c-0.13-0.25-0.31-0.46-0.53-0.63c-0.22-0.17-0.47-0.31-0.74-0.42c-0.27-0.1-0.54-0.19-0.81-0.24
		c-0.46-0.1-0.79-0.2-1-0.29c-0.21-0.09-0.31-0.23-0.31-0.43C101.32,7.65,101.41,7.5,101.6,7.42z"></path></g></svg>