<svg width="229" height="164" viewBox="0 0 229 164" fill="none" xmlns="http://www.w3.org/2000/svg">
<path d="M194.8 92.8H199.2C199.8 92.8 200.2 92.0999 199.9 91.5999L189 73.0999L185.3 66.9C185 66.4 185.4 65.6999 186 65.6999H187.8C188.4 65.6999 188.8 65 188.5 64.5L183.2 55.5999L177.9 46.7C177.6 46.2 176.8 46.2 176.5 46.7L171.2 55.5999L165.9 64.5C165.6 65 166 65.6999 166.6 65.6999H168.4C169 65.6999 169.4 66.4 169.1 66.9L165.4 73.0999L154.5 91.5999C154.2 92.0999 154.6 92.8 155.2 92.8H159.6C160.2 92.8 160.6 93.5 160.3 94L146.9 116.6C146.6 117.1 147 117.8 147.6 117.8H206.5C207.1 117.8 207.5 117.1 207.2 116.6L194.1 94C193.8 93.4 194.2 92.8 194.8 92.8Z" fill="#46C2CC"/>
<path d="M210.1 138.8C210.1 139 210.1 139.1 210.1 139.2H162.8C162.6 138.6 162.5 138 162.5 137.4C162.5 134 165.3 131.2 168.8 131.2C169.3 131.2 169.8 131.3 170.3 131.4C171.2 131.6 172.1 131.1 172.4 130.2C173.6 125.9 177.6 122.7 182.3 122.7C186.1 122.7 189.5 124.8 191.3 127.9C191.8 128.8 193.1 129 193.9 128.3C195 127.4 196.4 126.8 197.9 126.8C201.3 126.8 204.2 129.6 204.2 133C204.2 133 204.2 133 204.2 133.1C204.2 133.9 204.8 134.5 205.6 134.4C205.7 134.4 205.8 134.4 205.9 134.4C208.1 134.6 210 136.6 210.1 138.8Z" fill="#9DD9E0"/>
<path d="M65.9999 138.9C65.9999 139.1 65.9999 139.2 65.9999 139.3H18.6999C18.4999 138.7 18.3999 138.1 18.3999 137.5C18.3999 134.1 21.1999 131.3 24.6999 131.3C25.1999 131.3 25.6999 131.4 26.1999 131.5C27.0999 131.7 27.9999 131.2 28.2999 130.3C29.4999 126 33.4999 122.8 38.1999 122.8C41.9999 122.8 45.3999 124.9 47.1999 128C47.6999 128.9 48.9999 129.1 49.7999 128.4C50.8999 127.5 52.2999 126.9 53.7999 126.9C57.1999 126.9 60.0999 129.7 60.0999 133.1C60.0999 133.1 60.0999 133.1 60.0999 133.2C60.0999 134 60.6999 134.6 61.4999 134.5C61.5999 134.5 61.6999 134.5 61.7999 134.5C63.9999 134.6 65.9999 136.6 65.9999 138.9Z" fill="#9DD9E0"/>
<path d="M165 21.4H155.2V42H165V21.4Z" fill="#056EB4"/>
<path d="M106.5 81.6H42.2V140.5H106.5V81.6Z" fill="#13A1DC"/>
<path d="M105.9 63.2H47.1001V84.0999H105.8V63.2H105.9Z" fill="#213468"/>
<path d="M171.6 51.3H105.8V127.8H171.6V51.3Z" fill="#056EB4"/>
<path d="M105.9 51.2H171.7V46.7L140.1 19L105.9 46.7V51.2Z" fill="#13A1DC"/>
<path d="M100.9 53.9L99 51.6L139.9 18L178.2 51.7L176.3 53.9L139.9 21.9L100.9 53.9Z" fill="#213468"/>
<path d="M175.5 49.8H101.8V52.7001H175.5V49.8Z" fill="#213468"/>
<path d="M166.8 19.9H153.5V22.8H166.8V19.9Z" fill="#213468"/>
<path d="M175.3 81.1H101.6V84H175.3V81.1Z" fill="#213468"/>
<path d="M160.6 83.5H174.1L178.8 92.9H165.3L160.6 83.5Z" fill="#213468"/>
<path d="M117 83.5H103.5L98.8 93H112.3L117 83.5Z" fill="#213468"/>
<path d="M169.7 82.6H108.9V93H169.7V82.6Z" fill="#213468"/>
<path d="M55.2 63.2H41.7L37 84.0999H50.5L55.2 63.2Z" fill="#213468"/>
<path d="M171.6 127.1H105.8V140.4H171.6V127.1Z" fill="#13A1DC"/>
<path d="M172.9 93H170V140.5H172.9V93Z" fill="#213468"/>
<path d="M107.1 93H104.2V140.5H107.1V93Z" fill="#213468"/>
<path d="M44.4 84.1H41.5V140.4H44.4V84.1Z" fill="#213468"/>
<path d="M170 127.1H148.9V130.1H170V127.1Z" fill="#9FA0A0"/>
<path d="M170 130.1H148.9V133.1H170V130.1Z" fill="#BBBBBB"/>
<path d="M170 133.2H148.9V136.2H170V133.2Z" fill="#9FA0A0"/>
<path d="M170 136.2H148.9V139.2H170V136.2Z" fill="#BBBBBB"/>
<path d="M138.7 45.7C142.9 45.7 146.3 42.3 146.3 38.1C146.3 33.9 142.9 30.5 138.7 30.5C134.5 30.5 131.1 33.9 131.1 38.1C131.1 42.3 134.6 45.7 138.7 45.7Z" fill="#3786C7"/>
<path d="M138.7 45.9C134.4 45.9 131 42.4 131 38.2C131 33.9 134.5 30.5 138.7 30.5C143 30.5 146.4 34 146.4 38.2C146.5 42.4 143 45.9 138.7 45.9ZM138.7 30.8C134.6 30.8 131.3 34.1 131.3 38.2C131.3 42.3 134.6 45.6 138.7 45.6C142.8 45.6 146.1 42.3 146.1 38.2C146.1 34.1 142.8 30.8 138.7 30.8Z" fill="#213468"/>
<path d="M125.6 59.4H112.1V74.6H125.6V59.4Z" fill="#3786C7"/>
<path d="M125.8 74.8H112V59.2H125.8V74.8ZM112.3 74.4H125.4V59.5H112.3V74.4Z" fill="#213468"/>
<path d="M128.3 103.4H112.2V118.6H128.3V103.4Z" fill="#3786C7"/>
<path d="M128.4 118.8H112V103.2H128.5V118.8H128.4ZM112.3 118.5H128.1V103.6H112.3V118.5Z" fill="#213468"/>
<path d="M144.4 103.4H128.3V118.6H144.4V103.4Z" fill="#3786C7"/>
<path d="M144.6 118.8H128.1V103.2H144.6V118.8ZM128.4 118.5H144.2V103.6H128.4V118.5Z" fill="#213468"/>
<path d="M96.7 99H53V140.7H96.7V99Z" fill="#26689C"/>
<path d="M96.8999 140.8H52.8999V98.8H96.8999V140.8ZM53.1999 140.5H96.4999V99.1H53.1999V140.5Z" fill="#213468"/>
<path d="M145.5 59.4H132V74.6H145.5V59.4Z" fill="#3786C7"/>
<path d="M145.6 74.8H131.8V59.2H145.6V74.8ZM132.2 74.4H145.3V59.5H132.2V74.4Z" fill="#213468"/>
<path d="M165.2 59.4H151.7V74.6H165.2V59.4Z" fill="#3786C7"/>
<path d="M165.3 74.8H151.5V59.2H165.3V74.8ZM151.9 74.4H165V59.5H151.9V74.4Z" fill="#213468"/>
<path d="M146.5 116.5H107.2V127.1H146.5V116.5Z" fill="#F26339"/>
<path d="M146.5 117.4H107.2V117.7H146.5V117.4Z" fill="#DA5733"/>
<path d="M146.5 118.8H107.2V119.1H146.5V118.8Z" fill="#DA5733"/>
<path d="M146.5 120.2H107.2V120.5H146.5V120.2Z" fill="#DA5733"/>
<path d="M146.5 121.7H107.2V122H146.5V121.7Z" fill="#DA5733"/>
<path d="M146.5 123.1H107.2V123.4H146.5V123.1Z" fill="#DA5733"/>
<path d="M146.5 124.5H107.2V124.8H146.5V124.5Z" fill="#DA5733"/>
<path d="M146.5 125.9H107.2V126.2H146.5V125.9Z" fill="#DA5733"/>
<path d="M166 100.4H152.6V127.2H166V100.4Z" fill="#F26339"/>
<path d="M164.9 101.5H153.6V112.4H164.9V101.5Z" fill="#F58A6C"/>
<path d="M154.4 115.4C154.8 115.4 155.1 115.1 155.1 114.7C155.1 114.3 154.8 114 154.4 114C154 114 153.7 114.3 153.7 114.7C153.7 115.1 154 115.4 154.4 115.4Z" fill="white"/>
<path d="M69.9999 92.6L69.2999 93.2L68.8999 92.8L70.0999 91.8H70.6999V95.6H69.9999V92.6Z" fill="#213468"/>
<path d="M72.0999 95.6L73.0999 94.2C73.0999 94.2 72.9999 94.2 72.8999 94.3C72.7999 94.3 72.7999 94.3 72.6999 94.3C72.4999 94.3 72.3999 94.3 72.1999 94.2C72.0999 94.1 71.8999 94 71.7999 93.9C71.6999 93.8 71.5999 93.7 71.4999 93.5C71.3999 93.4 71.3999 93.2 71.3999 93C71.3999 92.8 71.3999 92.6 71.4999 92.5C71.5999 92.3 71.6999 92.2 71.7999 92.1C71.8999 92 72.0999 91.9 72.1999 91.8C72.3999 91.7 72.5999 91.7 72.6999 91.7C72.8999 91.7 73.0999 91.7 73.1999 91.8C73.3999 91.9 73.4999 92 73.5999 92.1C73.6999 92.2 73.7999 92.4 73.8999 92.5C73.9999 92.7 73.9999 92.8 73.9999 93C73.9999 93.1 73.9999 93.2 73.9999 93.3C73.9999 93.4 73.9999 93.5 73.8999 93.6C73.8999 93.7 73.7999 93.8 73.7999 93.9C73.6999 94 73.6999 94.1 73.5999 94.2L72.6999 95.7H72.0999V95.6ZM73.4999 93C73.4999 92.9 73.4999 92.8 73.3999 92.7C73.3999 92.6 73.2999 92.5 73.1999 92.5C73.0999 92.4 73.0999 92.4 72.9999 92.3C72.8999 92.3 72.7999 92.2 72.6999 92.2C72.4999 92.2 72.2999 92.3 72.1999 92.4C72.0999 92.5 71.9999 92.7 71.9999 92.9C71.9999 93 71.9999 93.1 72.0999 93.2C72.0999 93.3 72.1999 93.4 72.2999 93.4C72.3999 93.5 72.3999 93.5 72.4999 93.6C72.5999 93.6 72.6999 93.7 72.7999 93.7C72.8999 93.7 72.9999 93.7 73.0999 93.7C73.1999 93.7 73.2999 93.6 73.2999 93.5C73.3999 93.4 73.3999 93.4 73.4999 93.3C73.4999 93.2 73.4999 93.1 73.4999 93Z" fill="#213468"/>
<path d="M76.3001 94.8H74.6001V94.2L76.2001 91.8H77.0001V94.2H77.5001V94.8H77.0001V95.6H76.4001V94.8H76.3001ZM76.3001 92.6L75.2001 94.3H76.3001V92.6Z" fill="#213468"/>
<path d="M80.2999 92.4H78.7999V93.2C78.8999 93.2 78.8999 93.2 78.9999 93.2C79.0999 93.2 79.1999 93.2 79.1999 93.2C79.3999 93.2 79.5999 93.2 79.6999 93.3C79.8999 93.4 79.9999 93.4 80.0999 93.5C80.1999 93.6 80.2999 93.7 80.3999 93.9C80.4999 94.1 80.4999 94.2 80.4999 94.4C80.4999 94.6 80.4999 94.8 80.3999 95C80.2999 95.2 80.1999 95.3 80.0999 95.4C79.9999 95.5 79.7999 95.6 79.6999 95.7C79.4999 95.8 79.3999 95.8 79.1999 95.8C78.8999 95.8 78.5999 95.7 78.3999 95.6C78.1999 95.5 77.9999 95.2 77.8999 95L78.4999 94.8C78.5999 95 78.5999 95.1 78.7999 95.2C78.8999 95.3 79.0999 95.3 79.1999 95.3C79.2999 95.3 79.3999 95.3 79.4999 95.3C79.5999 95.3 79.6999 95.2 79.6999 95.2C79.7999 95.1 79.7999 95.1 79.8999 95C79.8999 94.9 79.9999 94.8 79.9999 94.7C79.9999 94.6 79.9999 94.4 79.8999 94.3C79.7999 94.2 79.7999 94.1 79.6999 94.1C79.5999 94 79.4999 94 79.3999 94C79.2999 94 79.1999 94 79.0999 94C78.9999 94 78.8999 94 78.8999 94C78.7999 94 78.6999 94 78.6999 94C78.5999 94 78.5999 94 78.4999 94.1C78.3999 94.1 78.3999 94.2 78.2999 94.2L78.3999 92.1H80.4999V92.4H80.2999Z" fill="#213468"/>
<path d="M90.3001 119.1C91.0001 118.3 90.0001 117.3 89.4001 117.3H87.4001C86.9001 117.3 86.7 117.7 86.7 117.8C85.6 115.9 84.4 113.8 84.1 113.3C83.6 112.4 83.6 112.4 82.6 111.9C80 111.1 78.7001 110.7 74.5 110.7C70.3 110.7 69.0001 111.1 66.4001 111.9C65.3001 112.4 65.4001 112.4 64.9001 113.3C64.6001 113.8 63.4001 115.9 62.4001 117.7C62.3001 117.5 62.1001 117.3 61.7001 117.3H59.7001C59.1001 117.3 58 118.3 58.8 119.1C59.5 119.8 60.5001 119.8 61.2001 119.7C61.0001 120.1 60.8 120.4 60.6 120.6C59.6 122 57.6001 129.9 59.7001 133.1C63.9001 133.4 74.6 133.1 74.6 133.1C74.6 133.1 85.3 133.4 89.5 133.1C91.6 129.9 89.6 122 88.6 120.6C88.4 120.4 88.2001 120.1 88 119.7C88.5 119.7 89.5001 119.8 90.3001 119.1Z" fill="#13A1DC"/>
<path d="M59 132.3C59 132.3 59.1 138.2 59.8 138.8C60.3 139.2 65.3 139.6 65.9 138.8C66.3 136.6 66.2 134 66.2 134L59 132.3Z" fill="#213468"/>
<path d="M89.6 132.3C89.6 132.3 89.5 138.2 88.8 138.8C88.3 139.2 83.3 139.6 82.7 138.8C82.3 136.6 82.4 134 82.4 134L89.6 132.3Z" fill="#213468"/>
<path d="M90.0999 131.6C90.0999 131.6 89.9999 131.4 89.7999 131.4C85.2999 131.7 79.7999 131.8 74.4999 131.8C69.0999 131.8 63.6999 131.7 59.1999 131.4C58.9999 131.4 58.8999 131.6 58.8999 131.6C58.4999 134.2 59.5999 135 63.9999 135.2C67.9999 135.4 74.5999 135.4 74.5999 135.4C74.5999 135.4 81.0999 135.4 85.1999 135.2C89.3999 134.9 90.3999 134.1 90.0999 131.6Z" fill="#BBBBBB"/>
<path d="M81.9 124.3C81.9 124.3 78.8 124.7 74.3 124.7C69.8 124.7 66.7 124.3 66.7 124.3C66 124.5 67.3 127.6 67.8 128.7C68.3 129.8 69.1 130.3 69.9 130.4C70.7 130.5 74.3 130.7 74.3 130.7C74.3 130.7 78 130.6 78.7 130.4C79.5 130.3 80.3 129.7 80.8 128.7C81.3 127.7 82.6 124.5 81.9 124.3Z" fill="#BBBBBB"/>
<path d="M85.4 118.3C84.9 117.3 83.6 113.9 82.9 113.2C80.7 112.6 79.6 112 74.4 112C69.2 112 68.1 112.6 65.9 113.2C65.2 113.9 63.9 117.3 63.4 118.3C62.9 119.3 62.3 120.4 63 120.3C64.8 119.9 74.4 119.8 74.4 119.8C74.4 119.8 84.1 120 85.8 120.3C86.5 120.4 85.9 119.3 85.4 118.3Z" fill="#056EB4"/>
<path d="M66.5 120C66.5 120 66.5 119.6 67.6 119.4C68.7 119.1 71.9 119 73.5 119C75.1 119 75.3 119.5 74.7 119.8C71.5 119.8 66.5 120 66.5 120Z" fill="#213468"/>
<path d="M73.8999 119.8C73.8999 119.8 73.8999 119.4 75.0999 119.2C76.2999 119 79.3999 119 80.9999 119.1C82.5999 119.2 82.7999 119.7 82.1999 120C78.8999 119.9 73.8999 119.8 73.8999 119.8Z" fill="#213468"/>
<path d="M60.5999 123.2C60.5999 123.2 63.8999 124 65.1999 124.2C65.5999 124.2 65.8999 124.7 65.8999 125V127C65.8999 127.2 65.7999 127.6 65.4999 127.6C65.1999 127.6 62.5999 127.6 60.2999 126.9C59.5999 126.6 59.5999 125.9 59.6999 125.5C59.7999 125 59.9999 124.3 60.0999 123.9C60.1999 123.4 60.5999 123.3 60.5999 123.2Z" fill="#99C8EA"/>
<path d="M88 123.2C88 123.2 84.7 124 83.4 124.2C83 124.2 82.7 124.7 82.7 125V127C82.7 127.2 82.8 127.6 83.1 127.6C83.4 127.6 86 127.6 88.3 126.9C89 126.6 89 125.9 88.9 125.5C88.8 125 88.6 124.3 88.5 123.9C88.4 123.4 88 123.3 88 123.2Z" fill="#99C8EA"/>
<path d="M73.3 125.5C71.1 125.5 67.2 125.4 66.7 125.1C66.7 125.1 66.6 125 66.7 125C66.7 125 66.8 124.9 66.8 125C67.1 125.2 70.1 125.4 74.2 125.3C78 125.3 81.3 125.1 81.6 125H81.7V125.1C81.3 125.3 77 125.5 74.2 125.5C74.1 125.5 73.7 125.5 73.3 125.5Z" fill="#9FA0A0"/>
<path d="M73.4 126.3C71.3 126.3 67.5 126.3 67 125.9C67 125.9 66.9 125.8 67 125.8H67.1C67.4 126 70.3 126.2 74.3 126.1C77.9 126.1 81.1 125.9 81.4 125.8C81.5 125.8 81.5 125.8 81.5 125.8C81.5 125.9 81.5 125.9 81.5 125.9C81.1 126.1 76.9 126.2 74.3 126.3C74.1 126.3 73.7 126.3 73.4 126.3Z" fill="#9FA0A0"/>
<path d="M73.4 127.2C71.3 127.2 67.6 127.2 67.2 126.8C67.2 126.8 67.1 126.7 67.2 126.7C67.2 126.7 67.3 126.6 67.3 126.7C67.6 126.9 70.4 127 74.3 127C77.8 127 81 126.8 81.2 126.7H81.3V126.8C80.9 127 76.9 127.1 74.3 127.1C74.1 127.2 73.8 127.2 73.4 127.2Z" fill="#9FA0A0"/>
<path d="M73.4 128C71.4 128 67.9 128 67.5 127.7C67.5 127.7 67.4 127.6 67.5 127.6C67.5 127.6 67.6 127.5 67.6 127.6C67.9 127.8 70.5 127.9 74.2 127.9C77.6 127.9 80.5 127.7 80.8 127.6H80.9C80.9 127.7 80.9 127.7 80.9 127.7C80.5 127.9 76.7 128 74.2 128C74.1 128 73.8 128 73.4 128Z" fill="#9FA0A0"/>
<path d="M73.4999 128.8C71.6999 128.8 68.2999 128.8 67.8999 128.5C67.8999 128.5 67.7999 128.4 67.8999 128.4C67.8999 128.4 67.9999 128.3 67.9999 128.4C68.2999 128.6 70.7999 128.7 74.2999 128.7C77.4999 128.7 80.2999 128.5 80.4999 128.4C80.5999 128.4 80.5999 128.4 80.5999 128.4C80.5999 128.5 80.5999 128.5 80.5999 128.5C80.1999 128.7 76.5999 128.8 74.2999 128.8C74.0999 128.8 73.7999 128.8 73.4999 128.8Z" fill="#9FA0A0"/>
<path d="M73.5001 129.6C71.8001 129.6 68.7001 129.6 68.3001 129.3C68.3001 129.3 68.2001 129.2 68.3001 129.2H68.4001C68.6001 129.4 71.0001 129.5 74.2001 129.5C77.2001 129.5 79.7001 129.4 80.0001 129.2C80.1001 129.2 80.1001 129.2 80.1001 129.2V129.3C79.8001 129.5 76.4001 129.6 74.2001 129.6C74.1001 129.6 73.8001 129.6 73.5001 129.6Z" fill="#9FA0A0"/>
<path d="M177.6 116.2H174.8V139.5H177.6V116.2Z" fill="#FCD5BF"/>
<path d="M184.4 118.3H168V130.6H184.5V118.3H184.4Z" fill="#F8F7F7"/>
<path d="M184.4 132H168V135.5H184.5V132H184.4Z" fill="#F8F7F7"/>
<path d="M182.9 122.9V129H169.6V122.9H182.9ZM183.2 122.6H169.2V129.4H183.2V122.6Z" fill="#056EB4"/>
<path d="M173.6 120.8V119.9C173.6 119.8 173.5 119.7 173.4 119.7H172C171.9 119.7 171.9 119.7 171.8 119.8C171.8 119.8 171.7 119.7 171.6 119.7H169.7C169.6 119.7 169.5 119.8 169.5 119.9V121.6C169.5 121.7 169.6 121.8 169.7 121.8C169.8 121.8 169.9 121.7 169.9 121.6V120.1H171.5H171.6V121.6C171.6 121.7 171.7 121.8 171.8 121.8C171.9 121.8 172 121.7 172 121.6V120.1H172.9V120.9C172.9 121 172.9 121 173 121.1L173.7 121.8C173.8 121.9 174 121.9 174.1 121.8C174.2 121.7 174.2 121.5 174.1 121.4L173.6 120.8Z" fill="#066FB4"/>
<path d="M182.7 121.4H181.4V120.2H182.7C182.8 120.2 182.9 120.1 182.9 120C182.9 119.9 182.8 119.8 182.7 119.8H181.2C181.1 119.8 181 119.9 181 120V121.5H180.9H179.7L178.8 119.9C178.8 119.8 178.7 119.8 178.6 119.8C178.5 119.8 178.4 119.8 178.4 119.9L177.5 121.5H175.9V120.3H176.8V120.7C176.8 120.8 176.9 120.9 177 120.9C177.1 120.9 177.2 120.8 177.2 120.7V120C177.2 119.9 177.1 119.8 177 119.8H175.6C175.5 119.8 175.4 119.9 175.4 120V121.7C175.4 121.8 175.5 121.9 175.6 121.9H177.6C177.7 121.9 177.8 121.9 177.8 121.8L178.6 120.5L179.4 121.8C179.4 121.9 179.5 121.9 179.6 121.9H181C181.1 121.9 181.1 121.9 181.2 121.8C181.2 121.8 181.3 121.9 181.4 121.9H182.9C183 121.9 183.1 121.8 183.1 121.7C183.1 121.6 182.8 121.4 182.7 121.4Z" fill="#066FB4"/>
<path d="M179.6 132.7H177.6C177.5 132.7 177.4 132.7 177.4 132.8L176.6 134.1L175.8 132.8C175.8 132.7 175.7 132.7 175.6 132.7H174.2C174.1 132.7 174 132.8 174 132.9V134.6C174 134.7 174.1 134.8 174.2 134.8C174.3 134.8 174.4 134.7 174.4 134.6V133.2H175.4L176.3 134.8C176.4 135 176.6 135 176.7 134.8L177.6 133.2H177.9V134.6C177.9 134.7 178 134.8 178.1 134.8H179.5C179.6 134.8 179.7 134.7 179.7 134.6V132.9C179.9 132.8 179.7 132.7 179.6 132.7ZM179.4 134.4H178.5V133.2H179.4V134.4Z" fill="#F26239"/>
<path d="M173.5 132.7H172.5C172.4 132.7 172.3 132.8 172.3 132.9C172.3 133 172.4 133.1 172.5 133.1H173.3V134.3H172.5C172.4 134.3 172.3 134.4 172.3 134.5C172.3 134.6 172.4 134.7 172.5 134.7H173.5C173.6 134.7 173.7 134.6 173.7 134.5V132.8C173.7 132.8 173.6 132.7 173.5 132.7Z" fill="#F26239"/>
</svg>
