<svg xmlns="http://www.w3.org/2000/svg" xml:space="preserve" id="Layer_1" x="0" y="0" style="enable-background:new 0 0 1150 436.2" version="1.1" viewBox="0 0 1150 436.2"><style>.st0{fill:#00586e}</style><path d="M118.9 280.5c-20.2 0-37.7-3.5-52.4-10.5-14.3-6.6-26.7-16.6-36.3-29-9.5-12.4-16.5-27-21.2-43.9-4.6-16.9-6.9-35.3-6.9-55.2-.2-18.8 2.2-37.5 6.9-55.6 4.6-17.1 11.7-31.9 21.2-44.4 9.6-12.5 22-22.5 36.3-29.2 14.7-7 32.2-10.5 52.4-10.5s37.7 3.5 52.4 10.5c14.3 6.6 26.8 16.7 36.3 29.2 9.5 12.5 16.5 27.3 21.2 44.4 4.8 18.2 7.1 36.9 6.9 55.6 0 20-2.3 38.4-6.9 55.2s-11.7 31.4-21.2 43.8c-9.6 12.4-22.1 22.4-36.3 29-14.7 7.1-32.1 10.6-52.4 10.6zm0-45.7c38.7 0 58-31 58-92.9 0-31-4.7-54.2-14-69.7S139.1 49 119.3 49c-39.2 0-58.8 31-58.8 92.9s19.5 92.9 58.4 92.9zM247.4 82.3c3.5-.7 7-1.3 10.5-1.7 3.9-.4 7.7-.6 11.6-.6 3.8 0 7.5.2 11.2.6 3.2.4 6.6.9 10.1 1.7.9 1.7 1.6 3.5 2.1 5.4.6 2.4 1.2 4.9 1.7 7.5s.9 5.2 1.3 7.7.7 4.6.9 6.4c2.7-4 5.7-7.7 9-11.2 3.6-3.9 7.7-7.3 12.2-10.1 4.8-3.1 10.1-5.5 15.5-7.3 6.2-1.9 12.6-2.9 19.1-2.8 22 0 38.5 6 49.6 18 11.1 12 16.6 30.9 16.7 56.5V276c-17.6 3-35.6 3-53.2 0V166.6c0-13.5-2.1-23.9-6.2-31.1s-11.3-10.9-21.5-10.9c-4.4 0-8.8.7-13.1 1.9-4.6 1.3-8.8 3.8-12.2 7.3-3.6 3.6-6.6 8.7-8.8 15.2-2.2 6.5-3.4 15-3.4 25.5V276c-17.6 3-35.6 3-53.2 0l.1-193.7zm185-76c8-1.2 17.2-2.2 27.7-3s23.6-1.1 39.3-1.1c13.1-.1 26.1 1.1 38.9 3.4 12.2 2.3 22.9 6.1 32 11.4 8.9 5.2 16.3 12.6 21.5 21.5 5.3 9 7.9 20.2 7.9 33.7.1 7.6-1.1 15.1-3.6 22.3-2.2 6.5-5.4 12.6-9.5 18-3.8 4.9-8.3 9.2-13.5 12.7-4.6 3.2-9.8 5.3-15.4 6.2 6.6 1 13 2.7 19.1 5.2 15.4 6.1 27.7 17.9 34.5 33 4 8.5 6 18.7 6 30.7 0 16.2-3.1 29.5-9.2 39.9-5.9 10.2-14.5 18.6-24.7 24.5-10.4 6-22.3 10.1-36 12.4-14.2 2.3-28.5 3.4-42.9 3.4-11.5 0-22.9-.3-34.1-.9s-24-1.8-38.2-3.5l.2-269.8zm70.8 109.4c5.8 0 11.7-.5 17.4-1.7 5-1 9.8-3 14-6 4.1-3 7.3-7 9.4-11.6 2.2-4.9 3.4-11 3.4-18.5 0-7.2-1.3-13.2-3.9-17.8-2.4-4.4-5.9-8.1-10.1-10.9-4.2-2.7-8.9-4.4-13.8-5.2-5-.9-10.1-1.3-15.1-1.3-5.9-.1-11.8.3-17.6 1.1v71.9h16.3zm-16.5 119c3.5.5 7.6.9 12.2 1.1 4.6.2 8.8.4 12.5.4 5.5 0 11-.5 16.5-1.5 5.7-1 11.1-2.9 16.1-5.8 5-2.9 9.3-7 12.4-12 3.2-5.1 4.9-11.8 4.9-20 0-7.7-1.2-14.2-3.7-19.3-2.4-5-6.1-9.3-10.7-12.4-5-3.3-10.6-5.5-16.5-6.6-7-1.3-14.1-1.9-21.2-1.9h-22.5v78zm247.6-86.1c0-6-1-10.9-3-14.6-1.9-3.6-4.7-6.7-8.2-8.8-4-2.3-8.4-3.8-12.9-4.3-5.6-.8-11.3-1.2-17-1.1-13.5 0-27.8 2.6-43.1 7.9-3.2-5.8-5.9-12-7.9-18.4-1.9-6.7-2.8-13.6-2.6-20.6 10.7-3.7 21.8-6.4 33-8.2 10.2-1.7 20.4-2.5 30.7-2.6 26 0 46.2 6.2 60.8 18.7 14.6 12.5 21.9 32.5 21.9 59.9v112.4c-10.5 3.2-21.1 5.8-31.9 7.9-14 2.6-28.1 3.9-42.3 3.7-11.8.1-23.5-1-35-3.4-10.6-2.2-19.7-6-27.4-11.2a52.77 52.77 0 0 1-17.6-20.2c-4.1-8.2-6.2-18.4-6.2-30.3 0-12 2.6-22 7.7-30.1 5-8 11.8-14.7 19.8-19.5 8.4-5 17.6-8.5 27.2-10.5 9.9-2.1 19.9-3.2 30-3.2 7.2 0 15.2.4 24 1.1v-4.6zm0 38.6c-3-.5-6.2-.9-9.7-1.3-3.1-.3-6.2-.5-9.4-.6-12.2 0-21.9 2.2-29 6.6-7.1 4.4-10.7 11.4-10.7 21.2 0 6.5 1.4 11.5 4.1 15 2.6 3.4 6 6 9.9 7.7 3.9 1.6 8.1 2.7 12.4 3 4.4.4 8.2.6 11.4.6 3.8 0 7.5-.3 11.2-.9 3.7-.6 7-1.2 9.7-1.7l.1-49.6zm110 4.5c-14-4-24.9-9.9-32.8-17.8-7.8-7.9-11.8-19.7-11.8-35.4 0-19 6.8-33.8 20.4-44.6s32.2-16.1 55.6-16.1c9.7 0 19.3.9 28.8 2.6 9.8 1.8 19.5 4.5 28.8 7.9-.6 6.8-1.8 13.6-3.7 20.2-1.7 6.3-4.1 12.5-7.1 18.4-6.5-2.6-13.1-4.8-19.8-6.6-7.5-1.9-15.1-2.8-22.8-2.8-8.5 0-15.1 1.3-19.9 3.9s-7.1 6.8-7.1 12.5c0 5.5 1.7 9.4 5.1 11.6s8.2 4.4 14.4 6.4l21.3 6.4c6.5 1.8 12.9 4.3 18.9 7.3 5.4 2.7 10.3 6.3 14.4 10.7 4.2 4.5 7.4 9.9 9.4 15.7 2.3 6.3 3.4 13.9 3.4 22.9.1 8.9-1.9 17.8-5.8 25.8-4 8.1-9.7 15.2-16.8 20.8-8 6.2-17.1 10.9-26.8 13.9-10.5 3.4-22.3 5.1-35.6 5.1-6 0-11.5-.2-16.5-.6-4.8-.3-9.7-1-14.4-1.9-4.6-.9-9.1-2-13.6-3.2s-9.3-2.9-14.6-4.9c.5-6.9 1.7-13.7 3.6-20.4 1.9-6.9 4.3-13.5 7.3-20 7.6 3.1 15.4 5.5 23.4 7.3 7.6 1.6 15.3 2.5 23 2.4 3.8 0 7.6-.3 11.4-.9 3.9-.6 7.8-1.7 11.4-3.4 3.3-1.5 6.3-3.7 8.8-6.4 2.5-2.9 3.7-6.5 3.6-10.3 0-6-1.8-10.3-5.4-12.9s-8.7-4.9-15.2-6.9l-23.3-6.7zm151 3.7c1 15 6.2 25.8 15.7 32.6s22 10.1 37.5 10.1c8.7 0 17.4-.8 26-2.4 8.6-1.6 17.1-3.9 25.3-6.9 3 5.7 5.4 11.8 7.1 18 2 7.3 3.2 14.9 3.4 22.5-19.5 7.5-41.4 11.2-65.9 11.2-18 0-33.4-2.5-46.3-7.5-12.8-5-23.3-11.9-31.5-20.8-8.3-9.1-14.4-19.9-18-31.6-4-13-5.9-26.5-5.8-40.1-.1-13.6 1.9-27.1 6-40.1 3.7-11.9 9.7-23 17.8-32.6 8-9.3 18-16.8 29.2-21.9 11.6-5.4 25.2-8.1 40.6-8.1 13.5 0 25.5 2.4 36 7.1 10.2 4.5 19.3 11.2 26.8 19.5 7.5 8.5 13.2 18.6 16.7 29.4 3.8 11.8 5.7 24.1 5.6 36.5 0 4.7-.2 9.4-.6 14s-.8 8.3-1.3 11.1H995.3zm76-37c-.5-12-3.8-21.7-9.9-29-6.1-7.3-14.7-11-25.7-11-12.5 0-22 3.5-28.5 10.5s-10.4 16.9-11.6 29.6l75.7-.1z" class="st0"></path><path d="m609.3 336.2-7.3-2.4V328l19.1-2.2 2.5.9v27.4c1.9-1.3 4-2.3 6.1-3.1 2.7-.9 5.6-1.4 8.5-1.3 3 0 5.9.5 8.7 1.5 2.8 1 5.4 2.6 7.5 4.8 2.3 2.4 4.2 5.3 5.3 8.5 1.4 4.1 2.1 8.4 2 12.8 0 4.1-.7 8.2-2.2 12-1.4 3.7-3.5 7.2-6.1 10.1-5.6 6.2-13.6 9.7-22 9.6-2.5 0-5-.1-7.5-.4-2.5-.3-4.8-.6-6.8-1.1-1.7-.3-3.5-.8-5.2-1.3-1-.2-1.9-.7-2.7-1.3l.1-68.7zm14.3 62.1c.7 1.3 1.8 2.3 3.1 2.9 2 .9 4.1 1.3 6.3 1.2 1.8 0 3.5-.4 5.2-1.2 1.8-.9 3.4-2.2 4.5-3.9 1.5-2.2 2.6-4.7 3.3-7.2.9-3.6 1.4-7.4 1.4-11.1.2-3.3-.2-6.5-1.2-9.7-.7-2.4-1.9-4.6-3.4-6.6-1.3-1.6-3-2.9-4.8-3.8-1.7-.8-3.5-1.2-5.4-1.2-1.8 0-3.6.2-5.4.7-1.2.4-2.4.9-3.6 1.4v38.5zm49.9 24.5c1.1.2 2.2.2 3.3.2 1.1 0 2.2-.2 3.3-.5 1.4-.4 2.7-1.2 3.8-2.1 1.5-1.4 2.7-2.9 3.7-4.7 1.4-2.6 2.5-5.3 3.1-8.1h-2.5L668.3 360l-4.7-1.1v-7.4h26.7v7.4L684 360l10.7 29.7 1.8 7.6 2.2-7.6 9-29.9-7.3-1.1v-7.4h23.8v7.4l-5.3 1-6.3 16.8c-1.8 4.8-3.4 8.9-4.7 12.4s-2.4 6.5-3.3 8.8-1.7 4.4-2.3 6-1.1 2.9-1.5 3.8-.7 1.8-1 2.4c-1.4 3.7-2.8 6.9-4.2 9.8-1.3 2.6-2.8 5.1-4.6 7.4a20.7 20.7 0 0 1-5.4 4.8c-2 1.2-4.3 1.8-6.7 2-1.5.2-3 .2-4.5.1-.7-.1-1.5-.1-2.2-.2-.5 0-1.1-.2-1.5-.5v-11c.9.1 1.7.3 2.8.5zm71.2-21.2 8.5-1.9v-62.4l-8.6-1.1v-6.8h31.5v6.8l-8.4 1v27.4h33.6v-27.4l-8.4-1v-6.8h31.3v6.8l-8.5 1v62.5l9 1.9v5.8h-32.3v-5.7l8.9-1.9v-27.1h-33.6v27.1l8.9 1.9v5.8h-31.9v-5.9zm91.1 21.2c1.1.2 2.2.2 3.3.2 1.1 0 2.2-.2 3.3-.5 1.4-.4 2.7-1.2 3.8-2.1 1.5-1.3 2.7-2.9 3.7-4.7 1.4-2.6 2.5-5.3 3.1-8.1h-2.5L830.6 360l-4.7-1.1v-7.4h26.7v7.4l-6.4 1.3 10.7 29.7 1.9 7.6 2.2-7.6 9-29.9-7.2-1.1v-7.4h23.8v7.4l-5.3 1-6.3 16.8c-1.8 4.8-3.4 8.9-4.7 12.4s-2.4 6.5-3.3 8.8-1.7 4.4-2.3 6-1.1 2.9-1.5 3.8-.7 1.8-1 2.4c-1.4 3.7-2.8 7-4.2 9.8-1.3 2.6-2.8 5.1-4.6 7.4a20.7 20.7 0 0 1-5.4 4.8c-2 1.2-4.3 1.8-6.7 2-1.5.2-3 .2-4.5.1-.7-.1-1.5-.1-2.2-.2-.5 0-1.1-.2-1.5-.5v-11c.8-.1 1.6.1 2.7.3zm51.7-21.1 7.1-1.2v-64.1l-7.3-2.4v-5.9l19.1-2.3 2.5 1v73.7l8.9 1.3v5.7h-30.2v-5.8zm33.7-12.5c.3-2.1 1.2-4 2.5-5.6 1.4-1.7 3-3.1 4.8-4.2 2-1.2 4-2.2 6.2-3 2.2-.8 4.5-1.5 6.8-2 2.2-.5 4.4-.8 6.6-1 2.1-.2 4-.3 5.6-.3v-1.9c.1-2.2-.2-4.4-.8-6.5-.5-1.5-1.3-2.9-2.4-3.9-1.1-1-2.4-1.6-3.8-1.9-1.6-.3-3.3-.5-4.9-.5-1.6 0-3.3.1-4.9.4-1.5.3-3 .6-4.4 1-1.3.4-2.5.8-3.7 1.3-1.1.5-2 .9-2.8 1.3l-2.7-6.4c1.1-.9 2.3-1.6 3.6-2.1 1.7-.8 3.6-1.5 5.4-2 2.2-.6 4.4-1.1 6.7-1.4 2.5-.4 5-.6 7.5-.5 2.9 0 5.7.3 8.5.9 2.5.5 4.8 1.6 6.9 3.1 2 1.6 3.6 3.6 4.6 6 1.2 3.1 1.8 6.4 1.7 9.7v32.1h6.5v4.5c-.8.5-1.6.9-2.5 1.2-1 .3-1.9.6-2.9.8-1 .2-2.1.3-3.1.4-1 .1-2 .1-3 .1-.8 0-1.5-.1-2.3-.2-.9-.1-1.7-.4-2.5-.8s-1.5-1-2.1-1.7c-.6-.9-.9-1.9-.8-3v-.5c-1.8 1.8-4 3.3-6.3 4.3-2.9 1.3-6 1.9-9.1 1.8-3.2.1-6.3-.5-9.3-1.6-2.4-.9-4.5-2.4-6.2-4.3-1.5-1.8-2.6-3.9-3.1-6.2-.8-2.5-.8-4.9-.3-7.4zm14 1.8c0 3.6 1 6.1 2.9 7.6s4.7 2.1 8.4 1.9c1.4-.1 2.7-.5 3.9-1.2 1.1-.6 2.2-1.3 3.2-2.1v-17.6c-1.2 0-2.5.1-3.9.2s-2.8.4-4.1.7c-1.4.3-2.7.8-3.9 1.4-1.2.5-2.3 1.2-3.3 2.1-1 .8-1.8 1.9-2.3 3-.6 1.2-.9 2.6-.9 4zm44.5 10.7 6.5-1.1v-36.4l-7-4.4v-4.9l16.3-4.9 3.1 1v7.3c1.3-1.2 2.8-2.3 4.3-3.2 1.6-1 3.4-1.9 5.2-2.6 1.8-.7 3.7-1.3 5.6-1.8 1.8-.4 3.7-.7 5.6-.7 2.7-.1 5.4.3 7.9 1.4 2.1.9 3.9 2.4 5.1 4.3 1.4 2.2 2.3 4.7 2.7 7.2.6 3.3.8 6.7.8 10.1v27.6l7.5 1.2v5.7h-29.1v-5.7l7.3-1.3V375c0-2.4-.1-4.8-.4-7.2-.2-1.7-.7-3.3-1.6-4.8-.8-1.2-1.9-2.1-3.3-2.6-1.8-.6-3.7-.8-5.6-.7-.7 0-1.5.1-2.2.3-.9.2-1.8.4-2.7.7-1 .3-1.9.7-2.8 1.1-.9.4-1.8.9-2.6 1.5v37.2l6.7 1.2v5.7h-27.5l.2-5.7zm91.1 7.1c-2.8 0-5.6-.6-8.2-1.6-2.8-1.1-5.3-2.9-7.4-5.1-2.4-2.6-4.2-5.6-5.4-8.8-1.5-4.1-2.2-8.5-2.1-12.9 0-4.2.8-8.4 2.4-12.4 1.5-3.6 3.8-6.9 6.7-9.7 2.8-2.7 6.2-4.9 9.9-6.4 3.9-1.5 8-2.3 12.1-2.3 1.1 0 2.2 0 3.5.1 1.3.1 2.7.3 4 .6v-14l-11-2.4V328l22.3-2.3 2.9 1.2v74.7h7v4.7c-1.7.8-3.4 1.4-5.2 1.8-2.6.6-5.3.8-8 .8-1.7.1-3.4-.3-4.9-1-1.3-.7-2.3-2-2.5-3.5-.8.6-1.6 1.1-2.4 1.5-1.1.6-2.2 1-3.4 1.4-1.5.4-3 .8-4.6 1-1.9.3-3.8.5-5.7.5zm4.1-8c1.5.2 3 .2 4.4 0 1.4-.1 2.8-.3 4.2-.7 1-.3 1.9-.7 2.8-1.3v-40.4c-2.1-1.8-5.1-2.7-8.9-2.7-1 0-1.9.1-2.8.4-1.1.3-2.2.7-3.2 1.3-1.2.7-2.3 1.5-3.2 2.5-1.1 1.1-2.1 2.5-2.8 3.9-.9 1.8-1.6 3.7-2 5.6-.6 2.5-.9 5.1-.9 7.6-.1 3.3.2 6.6.9 9.8.5 2.5 1.5 4.9 2.7 7.1 1 1.8 2.4 3.4 4.1 4.6 1.3 1.3 3 2 4.7 2.3z" style="fill:#6abf4b"></path><path d="M1130.2 64.5c10.1.1 18.2 8.3 18.2 18.4-.1 10.1-8.3 18.2-18.4 18.2-10.1-.1-18.2-8.3-18.2-18.4 0-10.1 8.1-18.2 18.2-18.2h.2zm0 33.9c8.5 0 15-6.8 15-15.7 0-8.8-6.6-15.5-15-15.5s-15.1 6.8-15.1 15.5c0 8.9 6.6 15.7 15.1 15.7zm-7.1-26.3h8.2c5.1 0 7.5 2 7.5 6.1 0 3.9-2.4 5.5-5.6 5.8l6.1 9.4h-3.6l-5.8-9.2h-3.5v9.2h-3.3V72.1zm3.3 9.5h3.5c2.9 0 5.6-.1 5.6-3.5 0-2.8-2.4-3.3-4.7-3.3h-4.4v6.8z" class="st0"></path></svg>