<svg xmlns="http://www.w3.org/2000/svg" viewBox="0 0 1024 1024"><defs><style>.a{fill:#ff4200}</style></defs><path d="M512 0C299.929 0 128 171.924 128 384s171.929 384 384 384 384-171.922 384-384S724.084 0 512 0Zm6 651a27 27 0 0 1-54 0V357a27 27 0 0 1 54 0Zm156-336a27 27 0 0 1-54 0V186H491a27 27 0 0 1 0-54h156a26.888 26.888 0 0 1 27 27Z" class="a"></path><path d="M219.341 883.023a5.869 5.869 0 0 1 1.659 4.221v131a5.54 5.54 0 0 1-1.659 4.127 6.142 6.142 0 0 1-8.343 0 5.527 5.527 0 0 1-1.643-4.127v-57.62a41.56 41.56 0 0 1-14.473 14.984 38.575 38.575 0 0 1-21.251 6.152 42.254 42.254 0 0 1-23.211-6.629 46.391 46.391 0 0 1-16.4-18.345 60.11 60.11 0 0 1 0-52.44A46.344 46.344 0 0 1 150.42 886a41.855 41.855 0 0 1 23.006-6.628 41.287 41.287 0 0 1 21.172 5.666 39 39 0 0 1 14.757 14.7v-12.49a5.856 5.856 0 0 1 1.645-4.225 5.9 5.9 0 0 1 8.343 0Zm-26.4 82.791a35.245 35.245 0 0 0 12.624-14.507 46.831 46.831 0 0 0 4.566-20.839 45.833 45.833 0 0 0-4.566-20.557 36.132 36.132 0 0 0-12.624-14.5 33.829 33.829 0 0 0-36.309 0 35.986 35.986 0 0 0-12.609 14.5 48.982 48.982 0 0 0 0 41.3 35.95 35.95 0 0 0 12.607 14.509 32.414 32.414 0 0 0 18.154 5.28 32.847 32.847 0 0 0 18.155-5.186ZM327.382 883.16a5.8 5.8 0 0 1 1.618 4.2v55.026q0 19.128-10.5 29.371Q307.975 982 289.438 982q-18.365 0-28.78-10.243t-10.408-29.371V887.36a5.8 5.8 0 0 1 1.618-4.2 5.93 5.93 0 0 1 8.23 0 5.805 5.805 0 0 1 1.618 4.2v55.026q0 14.055 7.265 21.367t20.457 7.321q13.373 0 20.738-7.321 7.35-7.312 7.358-21.367V887.36a5.752 5.752 0 0 1 1.634-4.2 5.911 5.911 0 0 1 8.214 0ZM442.868 884.018a5.893 5.893 0 0 1 1.632 4.213v86.115a5.73 5.73 0 1 1-11.457 0v-12.825a40.083 40.083 0 0 1-14.333 14.545A38.715 38.715 0 0 1 397.9 982a41.094 41.094 0 0 1-23.023-6.7 46.053 46.053 0 0 1-16.042-18.377A57.836 57.836 0 0 1 353 930.708a56.5 56.5 0 0 1 5.923-26.117 45.526 45.526 0 0 1 16.136-18.091 42.629 42.629 0 0 1 43.651-.958 36.567 36.567 0 0 1 14.333 14.546v-11.857a5.881 5.881 0 0 1 1.617-4.213 5.754 5.754 0 0 1 8.208 0Zm-25.977 82a35.7 35.7 0 0 0 12.421-14.545 47.208 47.208 0 0 0 4.493-20.768 45.7 45.7 0 0 0-4.493-20.285 35.855 35.855 0 0 0-12.421-14.444 31.546 31.546 0 0 0-17.861-5.264 31.966 31.966 0 0 0-17.862 5.17 35.1 35.1 0 0 0-12.405 14.25 45.773 45.773 0 0 0-4.493 20.573 47.835 47.835 0 0 0 4.4 20.768 34.89 34.89 0 0 0 12.312 14.545 33.251 33.251 0 0 0 35.909 0ZM558.341 833.641a5.577 5.577 0 0 1 1.659 4.145v136.5a5.577 5.577 0 0 1-1.659 4.145 6.123 6.123 0 0 1-8.343 0 5.565 5.565 0 0 1-1.643-4.145v-13.51a41.667 41.667 0 0 1-14.473 15.049A38.459 38.459 0 0 1 512.631 982a42.129 42.129 0 0 1-23.211-6.657 46.523 46.523 0 0 1-16.4-18.425 60.605 60.605 0 0 1 0-52.667 46.473 46.473 0 0 1 16.4-18.424 41.716 41.716 0 0 1 23.006-6.657 41.145 41.145 0 0 1 21.172 5.691 39.078 39.078 0 0 1 14.757 14.758v-61.833a5.565 5.565 0 0 1 1.645-4.145 6.123 6.123 0 0 1 8.343 0Zm-26.4 132.344a35.346 35.346 0 0 0 12.624-14.57 47.2 47.2 0 0 0 4.566-20.928 46.191 46.191 0 0 0-4.566-20.646 36.241 36.241 0 0 0-12.624-14.563 33.711 33.711 0 0 0-36.309 0 36.094 36.094 0 0 0-12.609 14.563 49.385 49.385 0 0 0 0 41.48 36.062 36.062 0 0 0 12.609 14.57 32.315 32.315 0 0 0 18.154 5.307 32.743 32.743 0 0 0 18.153-5.213Z"></path><path d="M600.307 978.881a6.516 6.516 0 0 1-8.6 0 5.384 5.384 0 0 1-1.71-4.09v-87.574a5.414 5.414 0 0 1 1.71-4.1 6.516 6.516 0 0 1 8.6 0 5.4 5.4 0 0 1 1.693 4.1v87.574a5.374 5.374 0 0 1-1.693 4.09ZM638 838c0-3.75-2.25-6-6-6h-39c-3.75 0-6 2.25-6 6s2.25 6 6 6h33v33c0 3.75 2.25 6 6 6s6-2.25 6-6Z" class="a"></path><path d="M721.771 929.47a5.774 5.774 0 0 1-4.055 1.627h-73.009a43.8 43.8 0 0 0 4.731 20.565 35.436 35.436 0 0 0 13.517 14.359q8.794 5.256 20.763 5.264a35.414 35.414 0 0 0 16.614-3.831 34.1 34.1 0 0 0 11.773-9.757 6.541 6.541 0 0 1 4.055-1.728 4.8 4.8 0 0 1 3.473 1.534 4.724 4.724 0 0 1 1.556 3.441 5.623 5.623 0 0 1-1.933 4.018 48.488 48.488 0 0 1-15.545 12.249 42.979 42.979 0 0 1-19.8 4.789q-14.877 0-26.264-6.315a45.105 45.105 0 0 1-17.777-17.707q-6.37-11.378-6.37-26.312 0-15.687 6.271-27.457a45.059 45.059 0 0 1 16.708-17.995 42.732 42.732 0 0 1 22.21-6.214 45.8 45.8 0 0 1 21.737 5.357 42.56 42.56 0 0 1 16.5 15.691q6.389 10.336 6.57 24.5a5.219 5.219 0 0 1-1.725 3.922Zm-63.846-30.719q-9.548 7.662-12.259 22h65.857v-1.521a30.141 30.141 0 0 0-5.784-15.021 31.449 31.449 0 0 0-12.071-9.764 35.446 35.446 0 0 0-14.979-3.349q-11.199.004-20.764 7.655ZM818.623 890.47q8.385 10.473 8.377 27.766v56.5a5.416 5.416 0 0 1-1.738 4.129 5.928 5.928 0 0 1-8.174 0 5.558 5.558 0 0 1-1.628-4.129v-55.922q0-12.49-6.263-20.275-6.247-7.776-19.338-7.78a34.575 34.575 0 0 0-27.7 14.122 23.394 23.394 0 0 0-4.619 13.933v55.923a5.771 5.771 0 1 1-11.54 0v-86.089a5.771 5.771 0 1 1 11.54 0v10.564a40.884 40.884 0 0 1 14.907-13.739A40.117 40.117 0 0 1 792.364 880q17.898 0 26.259 10.47ZM876.985 893.73v64.17q0 7.283 2.763 9.867c1.832 1.722 3.081 2.58 6.1 2.58a11.864 11.864 0 0 0 2.972-.476 11.312 11.312 0 0 1 2.763-.475 3.958 3.958 0 0 1 3.052 1.434 4.889 4.889 0 0 1 1.286 3.351c0 1.793-1.061 3.289-3.165 4.5a14.837 14.837 0 0 1-7.5 1.816 31.852 31.852 0 0 1-8.27-.959q-4.144-.959-8-5.744t-3.856-15.323V893.73h-14.41a5.78 5.78 0 0 1-4.048-1.535 5.226 5.226 0 0 1 0-7.661 5.809 5.809 0 0 1 4.048-1.528h14.41v-21.262a5.5 5.5 0 0 1 1.687-4.123 6.358 6.358 0 0 1 8.482 0 5.5 5.5 0 0 1 1.687 4.123v21.262h13.489a5.266 5.266 0 0 1 3.855 1.722 5.4 5.4 0 0 1 1.67 3.835 4.789 4.789 0 0 1-1.574 3.733 5.644 5.644 0 0 1-3.952 1.434Z"></path></svg>