<svg width="2512" height="1579.2" xmlns="http://www.w3.org/2000/svg" xmlns:xlink="http://www.w3.org/1999/xlink" xml:space="preserve"><g><title>Layer 1</title><g id="svg_134"><g id="svg_135"><g id="svg_136"><g id="svg_137"><defs><polygon id="SVGID_108_" points="1143.6,766.1 1738.3,766.1 1738.3,1094.4 1123.6,1084.4 "></polygon></defs><clipPath id="SVGID_109_"><use xlink:href="#SVGID_108_" id="svg_138"></use></clipPath></g></g></g></g><g id="svg_322"><defs><path id="SVGID_286_" d="m2075.2,521c-0.9,-0.9 -2.4,-1.2 -3.6,-0.6c-1.6,0.8 -2.2,2.7 -1.5,4.3c0.8,1.6 2.7,2.2 4.3,1.5c1.3,-0.6 1.9,-1.9 1.8,-3.3l29.8,-14.6l24.9,8.4l1,-1.9l-26,-8.8l-30.7,15z"></path></defs><clipPath id="SVGID_287_"><use xlink:href="#SVGID_286_" id="svg_323"></use></clipPath><defs><filter id="Adobe_OpacityMaskFilter_6_" x="2059.3" y="476.3" width="82.4" height="80.4"></filter></defs><mask maskUnits="userSpaceOnUse" x="2059.3" y="476.3" width="82.4" height="80.4" id="SVGID_288_"><g class="st104" filter="url(#Adobe_OpacityMaskFilter_6_)" id="svg_324"><polygon class="st105" points="2109.9,476.3 2141.7,519.6 2091.1,556.7 2059.3,513.3 " clip-path="url(#SVGID_287_)" fill="url(#SVGID_289_)" id="svg_325"></polygon></g></mask><polygon class="st106" points="2109.9,476.3 2141.7,519.6 2091.1,556.7 2059.3,513.3 " clip-path="url(#SVGID_287_)" mask="url(#SVGID_288_)" fill="url(#SVGID_290_)" id="svg_326"></polygon></g><g id="svg_332"><defs><path id="SVGID_296_" d="m2098.4,525.3c-0.9,-0.9 -2.4,-1.2 -3.6,-0.6c-1.6,0.8 -2.2,2.7 -1.5,4.3c0.8,1.6 2.7,2.2 4.3,1.5c1.3,-0.6 1.9,-2 1.8,-3.3l7.2,-3.6l15.1,5.1l1.6,-1.7l-16.9,-5.7l-8,4z"></path></defs><clipPath id="SVGID_297_"><use xlink:href="#SVGID_296_" id="svg_333"></use></clipPath><defs><filter id="Adobe_OpacityMaskFilter_8_" x="2087.9" y="506.6" width="40.2" height="39.2"></filter></defs><mask maskUnits="userSpaceOnUse" x="2087.9" y="506.6" width="40.2" height="39.2" id="SVGID_298_"><g class="st110" filter="url(#Adobe_OpacityMaskFilter_8_)" id="svg_334"><polygon class="st111" points="2112.6,506.6 2128,527.7 2103.3,545.9 2087.9,524.8 " clip-path="url(#SVGID_297_)" fill="url(#SVGID_299_)" id="svg_335"></polygon></g></mask><polygon class="st112" points="2112.6,506.6 2128,527.7 2103.3,545.9 2087.9,524.8 " clip-path="url(#SVGID_297_)" mask="url(#SVGID_298_)" fill="url(#SVGID_300_)" id="svg_336"></polygon></g><g id="svg_357"><defs><path id="SVGID_321_" d="m2123.9,447.4c-0.6,1.7 0.3,3.5 2,4c1.3,0.5 2.7,0 3.5,-1.1l27.7,9.4l-0.2,-2.3l-26.8,-9.1c0,-1.3 -0.8,-2.5 -2.2,-3c-0.3,-0.1 -0.7,-0.2 -1,-0.2c-1.3,0.1 -2.5,0.9 -3,2.3"></path></defs><clipPath id="SVGID_322_"><use xlink:href="#SVGID_321_" id="svg_358"></use></clipPath><defs><filter id="Adobe_OpacityMaskFilter_13_" x="2116.4" y="429.1" width="47.7" height="46.8"></filter></defs><mask maskUnits="userSpaceOnUse" x="2116.4" y="429.1" width="47.7" height="46.8" id="SVGID_323_"><g class="st125" filter="url(#Adobe_OpacityMaskFilter_13_)" id="svg_359"><polygon class="st126" points="2145.4,429.1 2164.1,454.7 2135.1,475.9 2116.4,450.3 " clip-path="url(#SVGID_322_)" fill="url(#SVGID_324_)" id="svg_360"></polygon></g></mask><polygon class="st127" points="2145.4,429.1 2164.1,454.7 2135.1,475.9 2116.4,450.3 " clip-path="url(#SVGID_322_)" mask="url(#SVGID_323_)" fill="url(#SVGID_325_)" id="svg_361"></polygon></g><g id="svg_362"><defs><path id="SVGID_326_" d="m2106.6,440.2c-0.6,1.7 0.3,3.5 2,4c0.5,0.2 1,0.2 1.4,0.1l3.9,8l41.7,14.3l1,2.1l0.2,-3.9l-41.4,-14.2l-3.6,-7.2c0.3,-0.3 0.6,-0.7 0.8,-1.2c0.6,-1.7 -0.3,-3.5 -2,-4c-0.3,-0.1 -0.7,-0.2 -1,-0.2c-1.3,0 -2.5,0.8 -3,2.2"></path></defs><clipPath id="SVGID_327_"><use xlink:href="#SVGID_326_" id="svg_363"></use></clipPath><defs><filter id="Adobe_OpacityMaskFilter_14_" x="2091.4" y="413.8" width="80.2" height="79.2"></filter></defs><mask maskUnits="userSpaceOnUse" x="2091.4" y="413.8" width="80.2" height="79.2" id="SVGID_328_"><g class="st128" filter="url(#Adobe_OpacityMaskFilter_14_)" id="svg_364"><polygon class="st129" points="2139.2,413.8 2171.6,458.1 2123.8,493 2091.4,448.8 " clip-path="url(#SVGID_327_)" fill="url(#SVGID_329_)" id="svg_365"></polygon></g></mask><polygon class="st130" points="2139.2,413.8 2171.6,458.1 2123.8,493 2091.4,448.8 " clip-path="url(#SVGID_327_)" mask="url(#SVGID_328_)" fill="url(#SVGID_330_)" id="svg_366"></polygon></g><g id="svg_367"><defs><path id="SVGID_331_" d="m2137.4,466.8c-0.6,1.7 0.3,3.5 2,4c1.3,0.5 2.7,0 3.6,-1.1l7.6,2.6l3.8,7.6l0.8,-3.1l-3.1,-6.3l-8.5,-2.9c0,-1.3 -0.8,-2.5 -2.2,-3c-0.3,-0.1 -0.7,-0.2 -1,-0.2c-1.3,0.3 -2.6,1.1 -3,2.4"></path></defs><clipPath id="SVGID_332_"><use xlink:href="#SVGID_331_" id="svg_368"></use></clipPath><defs><filter id="Adobe_OpacityMaskFilter_15_" x="2129.5" y="455.9" width="32.9" height="32.8"></filter></defs><mask maskUnits="userSpaceOnUse" x="2129.5" y="455.9" width="32.9" height="32.8" id="SVGID_333_"><g class="st131" filter="url(#Adobe_OpacityMaskFilter_15_)" id="svg_369"><polygon class="st132" points="2148.7,455.9 2162.4,474.6 2143.2,488.7 2129.5,470 " clip-path="url(#SVGID_332_)" fill="url(#SVGID_334_)" id="svg_370"></polygon></g></mask><polygon class="st133" points="2148.7,455.9 2162.4,474.6 2143.2,488.7 2129.5,470 " clip-path="url(#SVGID_332_)" mask="url(#SVGID_333_)" fill="url(#SVGID_335_)" id="svg_371"></polygon></g><g id="svg_407"><defs><path id="SVGID_371_" d="m2088.1,407.9c-1.3,0.5 -2.2,1.7 -2.2,3l-17.8,6.5l-2.4,5l1.1,2.5l2.8,-5.8l17,-6.2c0.8,1 2.2,1.5 3.5,1c1.7,-0.6 2.6,-2.4 2,-4c-0.5,-1.3 -1.7,-2.2 -3,-2.2c-0.3,0 -0.7,0.1 -1,0.2"></path></defs><clipPath id="SVGID_372_"><use xlink:href="#SVGID_371_" id="svg_408"></use></clipPath><defs><filter id="Adobe_OpacityMaskFilter_23_" x="2057.5" y="394.9" width="43.3" height="42.9"></filter></defs><mask maskUnits="userSpaceOnUse" x="2057.5" y="394.9" width="43.3" height="42.9" id="SVGID_373_"><g class="st155" filter="url(#Adobe_OpacityMaskFilter_23_)" id="svg_409"><polygon class="st156" points="2083.3,394.9 2100.9,418.9 2075.1,437.7 2057.5,413.7 " clip-path="url(#SVGID_372_)" fill="url(#SVGID_374_)" id="svg_410"></polygon></g></mask><polygon class="st157" points="2083.3,394.9 2100.9,418.9 2075.1,437.7 2057.5,413.7 " clip-path="url(#SVGID_372_)" mask="url(#SVGID_373_)" fill="url(#SVGID_375_)" id="svg_411"></polygon></g><g id="svg_417"><defs><path id="SVGID_381_" d="m2110,410.4l1,1.9l5.3,-1.8l6.4,3.2c-0.2,1.3 0.5,2.7 1.8,3.3c1.6,0.8 3.5,0.1 4.3,-1.5c0.8,-1.6 0.1,-3.5 -1.5,-4.3c-1.2,-0.6 -2.7,-0.3 -3.6,0.6l-7.2,-3.6l-6.5,2.2z"></path></defs><clipPath id="SVGID_382_"><use xlink:href="#SVGID_381_" id="svg_418"></use></clipPath><defs><filter id="Adobe_OpacityMaskFilter_25_" x="2105.4" y="398.9" width="28.6" height="28.1"></filter></defs><mask maskUnits="userSpaceOnUse" x="2105.4" y="398.9" width="28.6" height="28.1" id="SVGID_383_"><g class="st161" filter="url(#Adobe_OpacityMaskFilter_25_)" id="svg_419"><polygon class="st162" points="2122.7,398.9 2134,414.4 2116.8,427.1 2105.4,411.6 " clip-path="url(#SVGID_382_)" fill="url(#SVGID_384_)" id="svg_420"></polygon></g></mask><polygon class="st163" points="2122.7,398.9 2134,414.4 2116.8,427.1 2105.4,411.6 " clip-path="url(#SVGID_382_)" mask="url(#SVGID_383_)" fill="url(#SVGID_385_)" id="svg_421"></polygon></g><g id="svg_438"><defs><path id="SVGID_402_" d="m2065.7,1312.8c-15.3,11.4 -20.5,23.4 -11.6,27c9,3.5 28.7,-2.8 44,-14.2c15.3,-11.4 20.5,-23.4 11.6,-27c-1.7,-0.7 -3.7,-1 -6,-1c-10.1,0.1 -25.5,6 -38,15.2"></path></defs><clipPath id="SVGID_403_"><use xlink:href="#SVGID_402_" id="svg_439"></use></clipPath><polygon class="st172" points="2136.3,1335.9 2057.1,1369.2 2027.6,1305 2106.8,1271.8 " clip-path="url(#SVGID_403_)" fill="url(#SVGID_404_)" id="svg_440"></polygon></g><g id="svg_447"><defs><path id="SVGID_411_" d="m2131.9,1279.2l21.2,12.1c1.2,0.7 2.7,0.7 4,0l21.2,-12.1l-23.2,-13.3l-23.2,13.3z"></path></defs><clipPath id="SVGID_412_"><use xlink:href="#SVGID_411_" id="svg_448"></use></clipPath><rect x="2131.9" y="1265.9" class="st175" width="46.4" height="26.1" clip-path="url(#SVGID_412_)" fill="url(#SVGID_413_)" id="svg_449"></rect></g><g id="svg_453"><defs><path id="SVGID_417_" d="m2155.1,1212l0,54.1c0,0 0.4,0 0.8,0.2s22.4,12.8 22.4,12.8l45.1,-25.9c1.2,-0.7 1.2,-2.4 0,-3.1l-66.1,-37.8c-0.4,-0.3 -0.9,-0.4 -1.5,-0.4l-0.7,0l0,0.1z"></path></defs><clipPath id="SVGID_418_"><use xlink:href="#SVGID_417_" id="svg_454"></use></clipPath><polygon class="st177" points="2246.4,1271.1 2163.4,1301.8 2133.3,1220.1 2216.2,1189.5 " clip-path="url(#SVGID_418_)" fill="url(#SVGID_419_)" id="svg_455"></polygon></g><g id="svg_459"><defs><polygon id="SVGID_423_" points="1976.7,1253.6 1976,1253.9 1975.9,1253.9 1975.8,1253.9 1975.9,1253.8 1970.2,1252.6 1960.9,1252.6 1949.1,1255.5 1939.5,1261.5 1934.6,1266.9 1933.3,1267.2 1925.2,1269.1 1921.4,1270.8 1922.3,1272.8 1931.3,1281.5 1940.2,1287.8 1950.1,1292.5 1954.3,1294.7 1959.4,1297.3 1968.6,1300.9 1979.4,1304.5 1989.8,1306.3 1994.5,1307 2002.1,1308.1 2015.8,1307.8 2024.7,1306.2 2025.7,1306 2030.1,1304.3 2038.2,1302.4 2046.2,1298.8 2051.6,1294.1 2052.7,1291.9 2046.9,1284 2037.3,1274.4 2027.2,1267 2016.6,1261.6 2006.1,1258.6 2003.2,1258.4 2003.2,1258.4 1996.4,1254.5 1989,1252.6 1982.2,1252.5 "></polygon></defs><clipPath id="SVGID_424_"><use xlink:href="#SVGID_423_" id="svg_460"></use></clipPath><rect x="1921.4" y="1252.5" class="st179" width="131.3" height="55.6" clip-path="url(#SVGID_424_)" fill="url(#SVGID_425_)" id="svg_461"></rect></g><g id="svg_462"><defs><path id="SVGID_426_" d="m2116.6,1204.9l0,0l0,0z"></path></defs><clipPath id="SVGID_427_"><use xlink:href="#SVGID_426_" id="svg_463"></use></clipPath><circle class="st180" cx="2116.6" cy="1204.9" r="0" clip-path="url(#SVGID_427_)" fill="url(#SVGID_428_)" id="svg_464"></circle></g><g id="svg_465"><defs><path id="SVGID_429_" d="m2009.7,1484.6c0,0.8 0.6,1.7 1.6,1.8l103.6,10.1c1,0.1 1.8,-0.6 1.9,-1.5c0.1,-0.5 0,-38.8 0,-38.8l-107.2,-10.3c0.1,0 0.1,38.1 0.1,38.7"></path></defs><clipPath id="SVGID_430_"><use xlink:href="#SVGID_429_" id="svg_466"></use></clipPath><polygon class="st181" points="2003,1446.8 2115,1431.7 2123.7,1495.7 2011.7,1510.8 " clip-path="url(#SVGID_430_)" fill="url(#SVGID_431_)" id="svg_467"></polygon></g><g id="svg_468"><defs><path id="SVGID_432_" d="m2076.2,1411.6l-65.5,32.6c-1.6,0.8 -1.2,3.2 0.6,3.3l103.6,10.1c1.6,0.2 2.6,-1.7 1.5,-2.9l-36.2,-42.4c-0.6,-0.8 -1.6,-1.2 -2.5,-1.2c-0.5,0.2 -1,0.3 -1.5,0.5"></path></defs><clipPath id="SVGID_433_"><use xlink:href="#SVGID_432_" id="svg_469"></use></clipPath><polygon class="st182" points="1996.9,1414.7 2109.4,1382.8 2129.7,1454.4 2017.2,1486.3 " clip-path="url(#SVGID_433_)" fill="url(#SVGID_434_)" id="svg_470"></polygon></g><g id="svg_582"><defs><path id="SVGID_546_" d="m2203,973.5l-45.4,15.9c0,0 0,33.3 0,34.8c0,0.3 0,0.6 0.1,0.9c0,0 0,0 0,0c0.1,0.5 0.3,0.9 0.6,1.4l0,0l0,0c0.5,0.8 1.3,1.5 2.4,2.2l40.9,23.6c4.2,2.4 10.9,2.4 15.1,0l42.3,-24c1.1,-0.6 1.9,-1.4 2.4,-2.2l0,0l0,0c0.3,-0.4 0.5,-0.9 0.6,-1.4c0.1,-0.2 0.1,-0.5 0.1,-0.7c0.1,-1.6 0,-35 0,-35l-44,-15.5c-2.1,-1.2 -4.8,-1.8 -7.5,-1.8c-2.8,0 -5.6,0.6 -7.6,1.8"></path></defs><clipPath id="SVGID_547_"><use xlink:href="#SVGID_546_" id="svg_583"></use></clipPath><rect x="2157.5" y="971.7" class="st248" width="104.5" height="82.9" clip-path="url(#SVGID_547_)" fill="url(#SVGID_548_)" id="svg_584"></rect></g><g id="svg_585"><defs><path id="SVGID_549_" d="m2203,961l-42.3,24c-2.4,1.4 -3.4,3.3 -3,5.1c0,0 0,0 0,0c0.1,0.5 0.3,0.9 0.6,1.4l0,0l0,0c0.5,0.8 1.3,1.5 2.4,2.2l40.9,23.6c4.2,2.4 10.9,2.4 15.1,0l42.3,-24c1.1,-0.6 1.9,-1.4 2.4,-2.2l0,0l0,0c0.3,-0.4 0.5,-0.9 0.6,-1.4c0.4,-1.8 -0.6,-3.7 -3,-5.1l-41,-23.6c-2.1,-1.2 -4.8,-1.8 -7.5,-1.8c-2.7,0 -5.5,0.6 -7.5,1.8"></path></defs><clipPath id="SVGID_550_"><use xlink:href="#SVGID_549_" id="svg_586"></use></clipPath><polygon class="st249" points="2149.7,960.2 2260.7,946.2 2269.8,1018.7 2158.8,1032.7 " clip-path="url(#SVGID_550_)" fill="url(#SVGID_551_)" id="svg_587"></polygon></g><g stroke="null"><title stroke="null">ServiceNow logo</title><desc stroke="null">A cloud computing and enterprise software provider based in Santa Clara, California, United States</desc><metadata stroke="null">image/svg&#43;xml</metadata><g stroke="null" fill-rule="evenodd" clip-rule="evenodd"><g stroke="null" fill="#293e40"><path stroke="null" d="m637.91367,660.67416c-25.48547,0 -47.33015,9.10195 -65.53406,23.66508l0,-20.0243l-61.89328,0l0,234.83037l63.71367,0l0,-149.27202c9.10195,-12.74273 30.94664,-29.12625 58.25249,-29.12625c9.10195,0 18.2039,1.82039 25.48547,3.64078l0,-60.07289c-7.28156,-1.82039 -14.56312,-3.64078 -20.0243,-3.64078"></path><path stroke="null" d="m89.97614,826.29329c16.38351,14.56312 41.86898,23.66508 63.71367,23.66508c16.38351,0 30.94664,-9.10195 30.94664,-20.0243c0,-36.40781 -114.6846,-23.66508 -114.6846,-98.30108c0,-45.50976 43.68937,-72.81562 89.19913,-72.81562c30.94664,0 63.71367,10.92234 80.09718,23.66508l-29.12625,45.50976c-12.74273,-7.28156 -27.30586,-16.38351 -45.50976,-16.38351s-30.94664,7.28156 -30.94664,20.0243c0,30.94664 114.6846,18.2039 114.6846,100.12148c0,45.50976 -43.68937,72.81562 -92.83991,72.81562c-32.76703,0 -67.35445,-10.92234 -94.6603,-30.94664l29.12625,-47.33015z"></path><path stroke="null" d="m483.18048,778.96314c0,-65.53406 -45.50976,-120.14577 -111.04382,-120.14577c-69.17484,0 -114.6846,58.25249 -114.6846,121.96616c0,74.63601 52.79132,121.96616 121.96616,121.96616c36.40781,0 72.81562,-14.56312 96.48069,-41.86898l-36.40781,-36.40781c-10.92234,12.74273 -32.76703,27.30586 -58.25249,27.30586c-32.76703,0 -60.07289,-23.66508 -63.71367,-56.4321l162.01475,0c3.64078,-3.64078 3.64078,-9.10195 3.64078,-16.38351zm-160.19436,-27.30586c3.64078,-21.84469 25.48547,-41.86898 50.97093,-41.86898s43.68937,20.0243 47.33015,41.86898l-98.30108,0z"></path><polygon stroke="null" points="940.0994644165039,674.108642578125 832.6958389282227,908.9393310546875 789.0060195922852,908.9393310546875 681.6026382446289,674.108642578125 745.3162002563477,674.108642578125 810.8499526977539,817.919921875 874.5635147094727,674.108642578125 " transform="translate(-0.3 -0.5379)"></polygon><path stroke="null" d="m987.42864,553.27331c23.66508,0 41.86898,18.2039 41.86898,40.04859c0,23.66508 -18.2039,40.04859 -41.86898,40.04859s-40.04859,-18.2039 -40.04859,-40.04859c0,-23.66508 16.38351,-40.04859 40.04859,-40.04859"></path><rect stroke="null" height="234.83037" width="63.71367" y="664.31495" x="956.482"></rect><path stroke="null" d="m1278.69111,849.95836c-27.30586,36.40781 -61.89328,52.79132 -105.58265,52.79132c-72.81562,0 -125.60694,-54.61171 -125.60694,-121.96616c0,-69.17484 54.61171,-121.96616 125.60694,-121.96616c41.86898,0 76.4564,20.0243 98.30108,47.33015l-41.86898,38.2282c-12.74273,-16.38351 -30.94664,-27.30586 -52.79132,-27.30586c-36.40781,0 -63.71367,29.12625 -63.71367,63.71367c0,36.40781 25.48547,63.71367 63.71367,63.71367c25.48547,0 45.50976,-14.56312 56.4321,-30.94664l45.50976,36.40781z"></path><path stroke="null" d="m1506.23992,860.88071c-23.66508,27.30586 -60.07289,41.86898 -96.48069,41.86898c-69.17484,0 -121.96616,-47.33015 -121.96616,-121.96616c0,-65.53406 43.68937,-121.96616 114.6846,-121.96616c63.71367,0 111.04382,54.61171 111.04382,120.14577c0,7.28156 0,12.74273 -1.82039,18.2039l-163.83514,0c3.64078,32.76703 30.94664,56.4321 63.71367,56.4321c25.48547,0 47.33015,-14.56312 58.25249,-27.30586l36.40781,34.58742zm-58.25249,-109.22343c-1.82039,-20.0243 -20.0243,-41.86898 -47.33015,-41.86898c-25.48547,0 -47.33015,20.0243 -50.97093,41.86898l98.30108,0z"></path><path stroke="null" d="m1537.18655,899.10891l0,-234.83037l60.07289,0l0,20.0243c18.2039,-14.56312 40.04859,-23.66508 65.53406,-23.66508c32.76703,0 61.89328,14.56312 81.91757,38.2282c14.56312,18.2039 25.48547,41.86898 25.48547,81.91757l0,120.14577l-63.71367,0l0,-125.60694c0,-23.66508 -5.46117,-36.40781 -14.56312,-43.68937c-9.10195,-9.10195 -20.0243,-14.56312 -36.40781,-14.56312c-25.48547,0 -47.33015,16.38351 -58.25249,29.12625l0,152.9128l-60.07289,0z"></path></g><path stroke="null" fill="#81b5a1" d="m1932.21128,658.85377c-76.4564,0 -136.52928,60.07289 -136.52928,136.52928c0,40.04859 16.38351,76.4564 41.86898,101.94187c9.10195,9.10195 25.48547,9.10195 36.40781,1.82039c14.56312,-12.74273 36.40781,-20.0243 58.25249,-20.0243c23.66508,0 41.86898,7.28156 58.25249,20.0243c10.92234,9.10195 25.48547,7.28156 36.40781,-3.64078c25.48547,-25.48547 41.86898,-60.07289 41.86898,-100.12148c-1.82039,-74.63601 -61.89328,-136.52928 -136.52928,-136.52928m-1.82039,207.52451c-41.86898,0 -69.17484,-30.94664 -69.17484,-69.17484s27.30586,-69.17484 69.17484,-69.17484s69.17484,30.94664 69.17484,69.17484s-27.30586,69.17484 -69.17484,69.17484"></path><polygon stroke="null" fill="#293e40" points="2057.81729888916,674.108642578125 2119.71085357666,674.108642578125 2170.68302154541,808.81787109375 2221.652503967285,674.108642578125 2274.444007873535,674.108642578125 2323.59610748291,808.81787109375 2374.565589904785,674.108642578125 2438.27921295166,674.108642578125 2345.440101623535,908.9393310546875 2298.11026763916,908.9393310546875 2247.13858795166,776.0512084960938 2197.98868560791,908.9393310546875 2150.65909576416,908.9393310546875 " transform="translate(-0.3 -0.5379)"></polygon></g></g></g></svg>